<svg width="312" height="350" viewBox="0 0 312 350" fill="none" xmlns="http://www.w3.org/2000/svg">
<g id="logo">
<path id="shadow-layer" d="M212.3 345.79L212.46 345.27C212.526 345.348 212.58 345.436 212.62 345.53L212.42 346.16L212.12 347.16C212.108 347.205 212.091 347.248 212.07 347.29C211.97 347.42 211.85 347.56 211.72 347.71V347.58L212.01 346.58L212.3 345.79Z" fill="#CCCECE"/>
<path id="r-layer" d="M310.72 22.01L261.85 182.74L219.04 323.58L212.45 345.27C212.292 345.07 212.121 344.88 211.94 344.7C211.68 344.458 211.472 344.166 211.33 343.84L193.04 285.94L190.97 279.39L190.83 278.95L190.61 278.24L190.49 277.85L171.8 218.72L170.85 215.72L175.45 192.18L210.6 12.45C211.229 9.23556 212.985 6.35125 215.551 4.31631C218.118 2.28137 221.327 1.22948 224.6 1.35L298.05 4.21C300.162 4.28385 302.228 4.84294 304.088 5.84394C305.949 6.84494 307.554 8.26096 308.779 9.98223C310.004 11.7035 310.817 13.6838 311.153 15.7696C311.49 17.8554 311.342 19.9907 310.72 22.01Z" fill="#CCCECE"/>
<path id="rb-layer" d="M262.11 182.64L219.17 323.94L212.61 345.53L212.41 346.16L212.11 347.16C212.098 347.205 212.081 347.248 212.06 347.29C211.966 347.556 211.811 347.797 211.608 347.993C211.405 348.189 211.159 348.335 210.89 348.42V348.42C210.398 348.568 209.868 348.522 209.41 348.29C209.185 348.175 208.985 348.016 208.824 347.822C208.662 347.628 208.542 347.402 208.47 347.16L190.47 290.31L188.23 283.2L168.3 220.12L171.54 218.83L171.82 218.72L182.82 214.32L261.87 182.74L262.11 182.64Z" fill="#448292"/>
<path id="l-layer" d="M209.37 348.31C208.848 348.569 208.273 348.703 207.69 348.7H126.9C123.572 348.699 120.328 347.656 117.624 345.717C114.919 343.778 112.89 341.041 111.82 337.89L70.91 217.56L0.550003 10.56C0.174948 9.45547 0.0685389 8.27744 0.239609 7.12357C0.410678 5.9697 0.8543 4.87322 1.53369 3.92501C2.21308 2.97679 3.10869 2.20415 4.14627 1.67113C5.18385 1.13811 6.33352 0.86006 7.5 0.86002H97.59C99.151 0.85833 100.672 1.355 101.931 2.27771C103.19 3.20043 104.121 4.501 104.59 5.99001L170.17 213.54L170.85 215.69L171.8 218.69L190.48 277.8L190.6 278.19L190.82 278.9L190.96 279.34L193.03 285.89L211.3 343.82V343.89C211.543 344.736 211.484 345.641 211.132 346.448C210.779 347.255 210.156 347.913 209.37 348.31V348.31Z" fill="#BCA1A3"/>
<path id="lb-layer" d="M112.19 339.936L70.91 217.56L193.03 286.441L211.94 346.758C212.047 347.097 212.073 347.456 212.016 347.807C211.959 348.158 211.821 348.49 211.612 348.777C211.404 349.064 211.131 349.297 210.816 349.457C210.501 349.618 210.153 349.701 209.8 349.7H125.74C122.752 349.703 119.839 348.763 117.408 347.011C114.978 345.26 113.153 342.786 112.19 339.936V339.936Z" fill="#9FD6DF"/>
</g>
</svg>
