<svg width="1286" height="742" viewBox="0 0 1286 742" fill="none" xmlns="http://www.w3.org/2000/svg">
<g id="arts">
<path id="art7" d="M117 121L53 1V197L117 121Z" fill="#D9D9D9" stroke="black"/>
<path id="art6" d="M1189 109L1213 61L1253 129L1189 177V109Z" fill="#C395D9" stroke="black"/>
<path id="art5" d="M1273 337L1209 257V361L1273 337Z" fill="#9FD6DF" stroke="black"/>
<path id="art4" d="M1241 521L1161 457L1189 521L1285 621L1241 521Z" fill="#BCA1A3" stroke="black"/>
<path id="art3" d="M1001 93L1021 5L1085 93L1001 161V93Z" fill="#9FD6DF" stroke="black"/>
<path id="art2" d="M113 677L57 617L41 633L1 677L85 741L113 677Z" fill="#298A97" stroke="black"/>
<path id="art1" d="M113 385L53 349L21 409L113 441V385Z" fill="#C395D9" stroke="black"/>
</g>
</svg>
