<svg width="485" height="366" viewBox="0 0 485 366" fill="none" xmlns="http://www.w3.org/2000/svg">
<path d="M415.5 0H0L55 78H485L415.5 0Z" fill="#9FD6DF"/>
<path d="M78.905 26.85C79.5457 26.85 80.0727 26.8913 80.486 26.974C80.92 27.036 81.354 27.129 81.788 27.253C82.2427 27.377 82.8007 27.5217 83.462 27.687C83.586 28.4723 83.679 29.2887 83.741 30.136C83.8237 30.9627 83.8753 31.5827 83.896 31.996C83.9167 32.0993 83.8443 32.182 83.679 32.244C83.5137 32.2853 83.3793 32.306 83.276 32.306C83.1313 32.306 83.0177 32.2647 82.935 32.182C82.8937 31.81 82.7697 31.376 82.563 30.88C82.3563 30.384 82.067 29.9087 81.695 29.454C81.3437 28.9993 80.9097 28.6273 80.393 28.338C79.897 28.028 79.3287 27.873 78.688 27.873C77.8613 27.873 77.2103 28.0487 76.735 28.4C76.2597 28.7513 75.9187 29.1853 75.712 29.702C75.5053 30.2187 75.402 30.725 75.402 31.221C75.402 32.027 75.6087 32.6987 76.022 33.236C76.456 33.7733 76.9933 34.2487 77.634 34.662C78.2953 35.0753 78.9567 35.499 79.618 35.933C80.114 36.243 80.6617 36.584 81.261 36.956C81.8603 37.328 82.439 37.7413 82.997 38.196C83.555 38.6507 84.0097 39.1777 84.361 39.777C84.7123 40.3557 84.888 41.017 84.888 41.761C84.888 42.8563 84.578 43.8277 83.958 44.675C83.3587 45.5017 82.5733 46.1527 81.602 46.628C80.6513 47.0827 79.6387 47.31 78.564 47.31C77.5513 47.31 76.5697 47.1963 75.619 46.969C74.689 46.7417 73.852 46.5557 73.108 46.411C72.984 45.8117 72.8703 45.171 72.767 44.489C72.6843 43.807 72.612 43.2077 72.55 42.691C72.5087 42.1743 72.488 41.854 72.488 41.73C72.5913 41.6267 72.705 41.544 72.829 41.482C72.9737 41.3993 73.1183 41.358 73.263 41.358C73.449 41.358 73.5627 41.451 73.604 41.637C73.666 41.9263 73.79 42.3293 73.976 42.846C74.1827 43.342 74.472 43.8587 74.844 44.396C75.2367 44.9333 75.7327 45.388 76.332 45.76C76.952 46.1113 77.7167 46.287 78.626 46.287C79.5973 46.287 80.4447 45.9667 81.168 45.326C81.8913 44.6647 82.253 43.745 82.253 42.567C82.253 41.7197 82.0567 41.0583 81.664 40.583C81.292 40.1077 80.796 39.6943 80.176 39.343C79.5767 38.9917 78.9257 38.6197 78.223 38.227C77.4583 37.7723 76.6627 37.2763 75.836 36.739C75.03 36.181 74.348 35.53 73.79 34.786C73.232 34.042 72.953 33.1637 72.953 32.151C72.953 31.0763 73.232 30.1463 73.79 29.361C74.3687 28.555 75.1127 27.935 76.022 27.501C76.9313 27.067 77.8923 26.85 78.905 26.85ZM97.4813 26.819C98.8246 26.819 100.085 27.067 101.263 27.563C102.462 28.059 103.516 28.772 104.425 29.702C105.335 30.6113 106.048 31.6963 106.564 32.957C107.102 34.197 107.37 35.5713 107.37 37.08C107.37 38.506 107.102 39.839 106.564 41.079C106.048 42.2983 105.335 43.3833 104.425 44.334C103.516 45.264 102.462 45.9977 101.263 46.535C100.085 47.0517 98.8246 47.31 97.4813 47.31C96.1586 47.31 94.8979 47.062 93.6993 46.566C92.5213 46.07 91.4776 45.3673 90.5683 44.458C89.6796 43.528 88.9769 42.443 88.4603 41.203C87.9436 39.9423 87.6853 38.568 87.6853 37.08C87.6853 35.654 87.9436 34.321 88.4603 33.081C88.9769 31.841 89.6796 30.756 90.5683 29.826C91.4776 28.8753 92.5213 28.1417 93.6993 27.625C94.8979 27.0877 96.1586 26.819 97.4813 26.819ZM97.0473 27.842C95.9106 27.842 94.9393 28.1003 94.1333 28.617C93.3273 29.113 92.6659 29.7743 92.1493 30.601C91.6533 31.4277 91.2813 32.3473 91.0333 33.36C90.8059 34.3727 90.6923 35.3853 90.6923 36.398C90.6923 37.576 90.8473 38.754 91.1573 39.932C91.4879 41.0893 91.9633 42.1537 92.5833 43.125C93.2033 44.0757 93.9576 44.8403 94.8463 45.419C95.7556 45.9977 96.7993 46.287 97.9773 46.287C99.1139 46.287 100.085 46.039 100.891 45.543C101.697 45.0263 102.359 44.3443 102.875 43.497C103.392 42.6497 103.764 41.7197 103.991 40.707C104.239 39.6737 104.363 38.6507 104.363 37.638C104.363 36.46 104.198 35.2923 103.867 34.135C103.557 32.9777 103.082 31.9237 102.441 30.973C101.821 30.0223 101.057 29.268 100.147 28.71C99.2586 28.1313 98.2253 27.842 97.0473 27.842ZM120.529 26.819C121.521 26.819 122.554 26.8603 123.629 26.943C124.724 27.0257 125.83 27.191 126.946 27.439C126.946 27.439 126.977 27.656 127.039 28.09C127.121 28.5033 127.204 28.9993 127.287 29.578C127.369 30.136 127.442 30.6527 127.504 31.128C127.586 31.5827 127.628 31.8513 127.628 31.934C127.648 32.0167 127.586 32.0993 127.442 32.182C127.297 32.2647 127.142 32.306 126.977 32.306C126.832 32.306 126.708 32.275 126.605 32.213C126.563 31.9857 126.46 31.6343 126.295 31.159C126.15 30.6837 125.871 30.1877 125.458 29.671C125.065 29.1543 124.486 28.7203 123.722 28.369C122.957 27.997 121.944 27.811 120.684 27.811C119.568 27.811 118.555 28.0693 117.646 28.586C116.736 29.082 115.951 29.764 115.29 30.632C114.649 31.4793 114.153 32.43 113.802 33.484C113.471 34.5173 113.306 35.561 113.306 36.615C113.306 37.793 113.461 38.9503 113.771 40.087C114.101 41.2237 114.587 42.257 115.228 43.187C115.889 44.0963 116.705 44.83 117.677 45.388C118.669 45.9253 119.826 46.194 121.149 46.194C122.079 46.194 122.864 46.0493 123.505 45.76C124.166 45.4707 124.714 45.1297 125.148 44.737C125.747 44.1997 126.181 43.6003 126.45 42.939C126.718 42.2777 126.904 41.699 127.008 41.203C127.359 41.1617 127.679 41.2443 127.969 41.451C127.969 41.5957 127.927 41.885 127.845 42.319C127.783 42.753 127.7 43.2283 127.597 43.745C127.493 44.241 127.38 44.6853 127.256 45.078C127.132 45.4707 127.018 45.7187 126.915 45.822C126.088 46.2767 125.148 46.6177 124.094 46.845C123.04 47.0723 121.81 47.186 120.405 47.186C118.917 47.186 117.553 46.9277 116.313 46.411C115.073 45.8737 113.998 45.1503 113.089 44.241C112.2 43.311 111.508 42.257 111.012 41.079C110.536 39.8803 110.299 38.6093 110.299 37.266C110.299 35.84 110.547 34.507 111.043 33.267C111.559 32.0063 112.272 30.8903 113.182 29.919C114.091 28.9477 115.166 28.1933 116.406 27.656C117.666 27.098 119.041 26.819 120.529 26.819ZM134.206 27.098C134.805 27.098 135.384 27.0877 135.942 27.067C136.521 27.0257 137.12 26.9947 137.74 26.974C137.823 27.0567 137.854 27.2013 137.833 27.408C137.833 27.6147 137.802 27.7593 137.74 27.842C137.616 27.842 137.389 27.8627 137.058 27.904C136.727 27.9247 136.417 27.966 136.128 28.028C135.839 28.09 135.673 28.183 135.632 28.307C135.57 28.5137 135.529 28.7823 135.508 29.113C135.508 29.4437 135.508 29.8053 135.508 30.198C135.508 30.26 135.508 30.322 135.508 30.384C135.508 30.446 135.508 30.508 135.508 30.57V43.497C135.508 43.559 135.508 43.621 135.508 43.683C135.508 43.745 135.508 43.807 135.508 43.869C135.508 44.2617 135.508 44.6233 135.508 44.954C135.529 45.264 135.57 45.5223 135.632 45.729C135.673 45.8323 135.839 45.9253 136.128 46.008C136.417 46.0907 136.727 46.1527 137.058 46.194C137.389 46.2147 137.616 46.225 137.74 46.225C137.802 46.3077 137.833 46.4523 137.833 46.659C137.854 46.8657 137.823 47.0103 137.74 47.093C137.12 47.0517 136.521 47.0207 135.942 47C135.384 46.9587 134.805 46.938 134.206 46.938C133.627 46.938 133.038 46.9587 132.439 47C131.84 47.0207 131.23 47.0517 130.61 47.093C130.527 47.0103 130.486 46.8657 130.486 46.659C130.507 46.4523 130.548 46.3077 130.61 46.225C130.734 46.225 130.961 46.2147 131.292 46.194C131.623 46.1527 131.933 46.0907 132.222 46.008C132.532 45.9253 132.697 45.8323 132.718 45.729C132.801 45.481 132.842 45.1607 132.842 44.768C132.863 44.3753 132.873 43.9517 132.873 43.497V30.57C132.873 30.1153 132.863 29.6917 132.842 29.299C132.842 28.8857 132.801 28.555 132.718 28.307C132.697 28.183 132.532 28.09 132.222 28.028C131.933 27.966 131.623 27.9247 131.292 27.904C130.961 27.8627 130.734 27.842 130.61 27.842C130.548 27.7593 130.507 27.6147 130.486 27.408C130.486 27.2013 130.527 27.0567 130.61 26.974C131.23 26.9947 131.84 27.0257 132.439 27.067C133.038 27.0877 133.627 27.098 134.206 27.098ZM141.938 42.784C141.938 42.784 142.031 42.536 142.217 42.04C142.423 41.5233 142.692 40.831 143.023 39.963C143.353 39.095 143.725 38.134 144.139 37.08C144.573 36.0053 145.007 34.91 145.441 33.794C145.875 32.6573 146.288 31.5723 146.681 30.539C147.094 29.5057 147.456 28.5963 147.766 27.811C147.848 27.6457 148.024 27.4597 148.293 27.253C148.582 27.0463 148.799 26.943 148.944 26.943C148.985 26.943 149.006 26.9533 149.006 26.974C149.026 26.974 149.057 26.9843 149.099 27.005L155.268 43.187C155.722 44.3857 155.981 45.047 156.043 45.171C156.146 45.3983 156.342 45.5947 156.632 45.76C156.942 45.9253 157.241 46.0493 157.531 46.132C157.841 46.194 158.037 46.225 158.12 46.225C158.202 46.3283 158.233 46.4937 158.213 46.721C158.192 46.9277 158.171 47.0517 158.151 47.093C157.551 47.0517 157.014 47.0207 156.539 47C156.063 46.9587 155.495 46.938 154.834 46.938C154.131 46.938 153.542 46.9587 153.067 47C152.612 47.0207 152.033 47.0517 151.331 47.093C151.248 47.0103 151.207 46.8657 151.207 46.659C151.227 46.4523 151.279 46.3077 151.362 46.225C151.548 46.225 151.837 46.194 152.23 46.132C152.622 46.0493 152.891 45.946 153.036 45.822C153.118 45.7393 153.16 45.5947 153.16 45.388C153.16 45.202 153.087 44.892 152.943 44.458C152.819 44.0033 152.653 43.497 152.447 42.939C152.24 42.381 152.033 41.8437 151.827 41.327C151.62 40.7897 151.444 40.3557 151.3 40.025C151.176 39.6737 151.114 39.498 151.114 39.498C151.114 39.498 151.093 39.4773 151.052 39.436C151.01 39.3947 150.969 39.374 150.928 39.374C150.618 39.3533 150.235 39.343 149.781 39.343C149.326 39.343 148.902 39.343 148.51 39.343C148.406 39.343 148.303 39.343 148.2 39.343C148.096 39.343 148.003 39.343 147.921 39.343C147.301 39.343 146.774 39.3533 146.34 39.374C145.906 39.374 145.348 39.3947 144.666 39.436C144.645 39.436 144.614 39.4567 144.573 39.498C144.531 39.5187 144.511 39.529 144.511 39.529C144.511 39.529 144.428 39.7357 144.263 40.149C144.118 40.5623 143.932 41.0583 143.705 41.637C143.498 42.195 143.312 42.722 143.147 43.218C142.961 43.7347 142.837 44.1687 142.775 44.52C142.733 44.8713 142.713 45.1503 142.713 45.357C142.713 45.5843 142.868 45.7703 143.178 45.915C143.508 46.039 143.839 46.1217 144.17 46.163C144.521 46.2043 144.738 46.225 144.821 46.225C144.862 46.2663 144.893 46.4007 144.914 46.628C144.934 46.8347 144.924 46.9897 144.883 47.093C144.49 47.0723 144.149 47.0517 143.86 47.031C143.591 47.0103 143.312 46.9897 143.023 46.969C142.754 46.9483 142.392 46.938 141.938 46.938C141.483 46.938 141.101 46.9483 140.791 46.969C140.481 46.9897 140.171 47.0103 139.861 47.031C139.551 47.0517 139.158 47.0723 138.683 47.093C138.641 47.0517 138.621 46.9277 138.621 46.721C138.621 46.4937 138.641 46.3283 138.683 46.225C138.869 46.225 139.179 46.1837 139.613 46.101C140.067 45.9977 140.367 45.8427 140.512 45.636C140.822 45.2433 141.08 44.8093 141.287 44.334C141.514 43.838 141.731 43.3213 141.938 42.784ZM147.859 30.601L145.1 37.979C145.1 37.979 145.1 37.9997 145.1 38.041C145.12 38.0823 145.141 38.103 145.162 38.103C145.554 38.1237 146.019 38.1443 146.557 38.165C147.115 38.165 147.559 38.165 147.89 38.165C148.365 38.165 148.789 38.1547 149.161 38.134C149.553 38.1133 149.977 38.0927 150.432 38.072C150.473 38.072 150.494 38.0513 150.494 38.01C150.514 37.948 150.525 37.917 150.525 37.917L147.859 30.601ZM164.298 43.497C164.298 43.5383 164.298 43.6003 164.298 43.683C164.298 43.869 164.298 44.117 164.298 44.427C164.298 44.7163 164.308 44.985 164.329 45.233C164.35 45.481 164.391 45.6257 164.453 45.667C164.66 45.8117 164.908 45.9047 165.197 45.946C165.507 45.9667 165.982 45.977 166.623 45.977H168.328C168.907 45.977 169.537 45.915 170.219 45.791C170.922 45.6463 171.48 45.4293 171.893 45.14C172.265 44.8713 172.606 44.4993 172.916 44.024C173.247 43.5487 173.536 42.908 173.784 42.102C173.825 41.978 173.97 41.916 174.218 41.916C174.59 41.916 174.838 41.978 174.962 42.102C174.673 42.9287 174.352 43.807 174.001 44.737C173.67 45.667 173.453 46.4627 173.35 47.124C171.717 47.124 170.095 47.1033 168.483 47.062C166.871 47.0207 165.052 47 163.027 47C162.324 47 161.694 47.0103 161.136 47.031C160.578 47.0723 159.999 47.093 159.4 47.093C159.317 47.0103 159.276 46.8657 159.276 46.659C159.297 46.4523 159.338 46.3077 159.4 46.225C159.524 46.225 159.751 46.2147 160.082 46.194C160.413 46.1527 160.723 46.0907 161.012 46.008C161.322 45.9253 161.487 45.8323 161.508 45.729C161.591 45.481 161.632 45.1607 161.632 44.768C161.653 44.3753 161.663 43.9517 161.663 43.497V30.57C161.663 30.1153 161.653 29.6917 161.632 29.299C161.632 28.8857 161.591 28.555 161.508 28.307C161.487 28.183 161.322 28.09 161.012 28.028C160.723 27.966 160.413 27.9247 160.082 27.904C159.751 27.8627 159.524 27.842 159.4 27.842C159.338 27.7593 159.297 27.6147 159.276 27.408C159.276 27.2013 159.317 27.0567 159.4 26.974C160.02 26.9947 160.63 27.0257 161.229 27.067C161.828 27.0877 162.417 27.098 162.996 27.098C163.595 27.098 164.174 27.0877 164.732 27.067C165.311 27.0257 165.91 26.9947 166.53 26.974C166.613 27.0567 166.644 27.2013 166.623 27.408C166.623 27.6147 166.592 27.7593 166.53 27.842C166.406 27.842 166.179 27.8627 165.848 27.904C165.517 27.9247 165.207 27.966 164.918 28.028C164.629 28.09 164.463 28.183 164.422 28.307C164.36 28.5137 164.319 28.7823 164.298 29.113C164.298 29.4437 164.298 29.8053 164.298 30.198C164.298 30.26 164.298 30.322 164.298 30.384C164.298 30.446 164.298 30.508 164.298 30.57V43.497ZM189.061 27.098C189.578 27.098 190.032 27.0877 190.425 27.067C190.818 27.0257 191.179 26.9947 191.51 26.974C191.634 27.3667 191.861 27.9763 192.192 28.803C192.543 29.6297 192.946 30.6113 193.401 31.748C193.876 32.864 194.383 34.0523 194.92 35.313C195.457 36.5737 195.984 37.8343 196.501 39.095C197.018 40.335 197.493 41.4923 197.927 42.567C197.948 42.6083 197.989 42.629 198.051 42.629C198.113 42.629 198.154 42.5877 198.175 42.505C198.774 40.9757 199.312 39.6013 199.787 38.382C200.262 37.142 200.738 35.9123 201.213 34.693C201.709 33.453 202.246 32.089 202.825 30.601C203.011 30.1257 203.207 29.609 203.414 29.051C203.621 28.493 203.796 28.0073 203.941 27.594C204.086 27.1807 204.158 26.974 204.158 26.974C205.129 27.036 205.925 27.067 206.545 27.067C207.082 27.067 207.682 27.0567 208.343 27.036C209.025 27.0153 209.552 26.9947 209.924 26.974C209.945 27.0153 209.965 27.1703 209.986 27.439C210.007 27.7077 210.017 27.842 210.017 27.842C209.872 27.842 209.635 27.8627 209.304 27.904C208.994 27.9453 208.694 28.0073 208.405 28.09C208.116 28.1727 207.94 28.2657 207.878 28.369C207.816 28.5137 207.775 28.6997 207.754 28.927C207.733 29.1543 207.723 29.361 207.723 29.547C207.744 30.0637 207.764 30.849 207.785 31.903C207.806 32.957 207.826 34.1453 207.847 35.468C207.888 36.77 207.919 38.0617 207.94 39.343C207.981 40.6243 208.012 41.761 208.033 42.753C208.054 43.3317 208.085 43.8793 208.126 44.396C208.167 44.9127 208.26 45.3467 208.405 45.698C208.467 45.8427 208.653 45.9563 208.963 46.039C209.273 46.101 209.583 46.1527 209.893 46.194C210.224 46.2147 210.43 46.225 210.513 46.225C210.596 46.3697 210.627 46.5453 210.606 46.752C210.606 46.938 210.596 47.0517 210.575 47.093C209.976 47.0517 209.387 47.0207 208.808 47C208.25 46.9587 207.64 46.938 206.979 46.938C206.276 46.938 205.667 46.9587 205.15 47C204.633 47.0207 204.024 47.0517 203.321 47.093C203.3 47.0517 203.28 46.9277 203.259 46.721C203.238 46.5143 203.259 46.349 203.321 46.225C203.445 46.225 203.641 46.2147 203.91 46.194C204.179 46.1527 204.447 46.1113 204.716 46.07C204.985 46.008 205.181 45.946 205.305 45.884C205.408 45.822 205.481 45.6463 205.522 45.357C205.563 45.0677 205.584 44.8197 205.584 44.613C205.584 44.3857 205.574 44.0963 205.553 43.745C205.532 43.373 205.522 43.0733 205.522 42.846C205.481 41.3787 205.439 39.9733 205.398 38.63C205.357 37.266 205.315 35.8813 205.274 34.476C205.233 33.05 205.181 31.5207 205.119 29.888C205.119 29.826 205.098 29.7123 205.057 29.547C205.016 29.3817 204.943 29.299 204.84 29.299C204.799 29.299 204.747 29.3713 204.685 29.516C204.065 31.066 203.486 32.5023 202.949 33.825C202.432 35.1477 201.926 36.429 201.43 37.669C200.934 38.8883 200.428 40.1387 199.911 41.42C199.415 42.6807 198.878 44.0447 198.299 45.512C198.258 45.5947 198.165 45.76 198.02 46.008C197.875 46.256 197.72 46.4937 197.555 46.721C197.41 46.9277 197.276 47.0413 197.152 47.062C197.111 47.0827 197.038 47.0723 196.935 47.031C196.914 47.0103 196.894 47 196.873 47L189.495 29.33C189.474 30.6527 189.443 32.0167 189.402 33.422C189.361 34.8273 189.319 36.1913 189.278 37.514C189.257 38.8367 189.226 40.0353 189.185 41.11C189.164 42.164 189.144 43.0217 189.123 43.683C189.102 44.3237 189.092 44.675 189.092 44.737C189.092 44.8817 189.102 45.047 189.123 45.233C189.144 45.3983 189.175 45.543 189.216 45.667C189.278 45.8117 189.485 45.9253 189.836 46.008C190.208 46.0907 190.58 46.1527 190.952 46.194C191.324 46.2147 191.551 46.225 191.634 46.225C191.717 46.3077 191.748 46.4627 191.727 46.69C191.706 46.9173 191.686 47.0517 191.665 47.093C191.066 47.0517 190.549 47.0207 190.115 47C189.681 46.9587 189.133 46.938 188.472 46.938C187.769 46.938 187.18 46.9587 186.705 47C186.23 47.0207 185.641 47.0517 184.938 47.093C184.917 47.0517 184.897 46.9277 184.876 46.721C184.855 46.5143 184.876 46.349 184.938 46.225C185.062 46.225 185.3 46.2043 185.651 46.163C186.023 46.1217 186.385 46.0597 186.736 45.977C187.087 45.8943 187.304 45.791 187.387 45.667C187.532 45.4603 187.625 45.2433 187.666 45.016C187.707 44.768 187.738 44.4787 187.759 44.148C187.821 42.3293 187.873 40.583 187.914 38.909C187.976 37.235 188.017 35.7367 188.038 34.414C188.079 33.0707 188.11 31.9857 188.131 31.159C188.152 30.3117 188.162 29.8157 188.162 29.671C188.162 29.4437 188.152 29.2267 188.131 29.02C188.131 28.8133 188.1 28.6273 188.038 28.462C187.997 28.338 187.821 28.2347 187.511 28.152C187.222 28.0487 186.912 27.9763 186.581 27.935C186.271 27.873 186.054 27.842 185.93 27.842C185.909 27.842 185.899 27.7077 185.899 27.439C185.899 27.1497 185.909 26.9947 185.93 26.974C186.405 26.9947 186.788 27.0153 187.077 27.036C187.366 27.0567 187.656 27.0773 187.945 27.098C188.234 27.098 188.606 27.098 189.061 27.098ZM216.52 27.098C217.946 27.098 219.516 27.067 221.232 27.005C222.947 26.943 224.621 26.912 226.254 26.912C226.357 27.6767 226.491 28.3793 226.657 29.02C226.822 29.6607 226.977 30.322 227.122 31.004C227.018 31.1073 226.843 31.159 226.595 31.159C226.326 31.159 226.181 31.0867 226.161 30.942C225.83 29.7227 225.365 28.9477 224.766 28.617C224.166 28.2863 223.464 28.121 222.658 28.121H220.054C219.93 28.121 219.702 28.1313 219.372 28.152C219.041 28.152 218.731 28.1727 218.442 28.214C218.152 28.2553 217.987 28.3277 217.946 28.431C217.884 28.6377 217.842 28.9063 217.822 29.237C217.822 29.5677 217.822 29.9087 217.822 30.26C217.822 30.4047 217.822 30.5183 217.822 30.601V36.243C217.822 36.3257 217.956 36.3773 218.225 36.398C218.493 36.4187 218.793 36.429 219.124 36.429H220.705C221.428 36.429 221.986 36.4083 222.379 36.367C222.792 36.3257 223.092 36.2327 223.278 36.088C223.464 35.9433 223.608 35.7263 223.712 35.437C223.815 35.1477 223.929 34.755 224.053 34.259C224.073 34.1143 224.218 34.042 224.487 34.042C224.735 34.042 224.91 34.0937 225.014 34.197V39.901C224.931 39.9837 224.766 40.025 224.518 40.025C224.27 40.025 224.115 39.9527 224.053 39.808C223.908 39.2293 223.784 38.816 223.681 38.568C223.598 38.2993 223.515 38.1237 223.433 38.041C223.371 37.9377 223.288 37.855 223.185 37.793C223.081 37.7103 222.844 37.6587 222.472 37.638C222.1 37.5967 221.686 37.576 221.232 37.576C220.798 37.5553 220.384 37.545 219.992 37.545C219.723 37.545 219.413 37.5553 219.062 37.576C218.731 37.576 218.442 37.5967 218.194 37.638C217.946 37.6587 217.822 37.7207 217.822 37.824V43.59C217.822 43.6313 217.822 43.6933 217.822 43.776C217.822 44.0653 217.822 44.4373 217.822 44.892C217.842 45.3467 217.894 45.605 217.977 45.667C218.183 45.8117 218.431 45.9047 218.721 45.946C219.031 45.9667 219.506 45.977 220.147 45.977H221.604C222.327 45.977 223.04 45.9047 223.743 45.76C224.445 45.6153 225.003 45.4087 225.417 45.14C225.892 44.8507 226.264 44.4373 226.533 43.9C226.801 43.342 227.06 42.7427 227.308 42.102C227.349 41.978 227.494 41.916 227.742 41.916C228.114 41.916 228.362 41.978 228.486 42.102C228.196 42.9287 227.876 43.807 227.525 44.737C227.194 45.667 226.977 46.4627 226.874 47.124C225.241 47.124 223.619 47.1033 222.007 47.062C220.395 47.0207 218.576 47 216.551 47C215.848 47 215.218 47.0103 214.66 47.031C214.102 47.0723 213.523 47.093 212.924 47.093C212.841 47.0103 212.8 46.8657 212.8 46.659C212.82 46.4523 212.862 46.3077 212.924 46.225C213.048 46.225 213.275 46.2147 213.606 46.194C213.936 46.1527 214.246 46.0907 214.536 46.008C214.846 45.9253 215.011 45.8323 215.032 45.729C215.114 45.481 215.156 45.1607 215.156 44.768C215.176 44.3753 215.187 43.9517 215.187 43.497V30.57C215.187 30.1153 215.176 29.6917 215.156 29.299C215.156 28.8857 215.114 28.555 215.032 28.307C215.011 28.183 214.846 28.09 214.536 28.028C214.246 27.966 213.936 27.9247 213.606 27.904C213.275 27.8627 213.048 27.842 212.924 27.842C212.862 27.7593 212.82 27.6147 212.8 27.408C212.8 27.2013 212.841 27.0567 212.924 26.974C213.544 26.9947 214.153 27.0257 214.753 27.067C215.352 27.0877 215.941 27.098 216.52 27.098ZM238.661 27.067C240.872 27.067 242.774 27.501 244.365 28.369C245.956 29.2163 247.176 30.384 248.023 31.872C248.87 33.3393 249.294 35.0133 249.294 36.894C249.294 38.1753 249.118 39.4257 248.767 40.645C248.416 41.8643 247.816 42.9597 246.969 43.931C246.142 44.9023 245.016 45.6773 243.59 46.256C242.164 46.814 240.387 47.093 238.258 47.093H230.694C230.611 47.0103 230.57 46.8657 230.57 46.659C230.591 46.4523 230.632 46.3077 230.694 46.225C230.818 46.225 231.045 46.2147 231.376 46.194C231.707 46.1527 232.017 46.0907 232.306 46.008C232.616 45.9253 232.781 45.8323 232.802 45.729C232.885 45.481 232.926 45.1607 232.926 44.768C232.947 44.3753 232.957 43.9517 232.957 43.497V30.57C232.957 30.1153 232.947 29.6917 232.926 29.299C232.926 28.8857 232.885 28.555 232.802 28.307C232.781 28.183 232.616 28.09 232.306 28.028C232.017 27.966 231.707 27.9247 231.376 27.904C231.045 27.8627 230.818 27.842 230.694 27.842C230.632 27.7593 230.591 27.6147 230.57 27.408C230.57 27.2013 230.611 27.0567 230.694 26.974C231.314 26.9947 231.924 27.0257 232.523 27.067C233.122 27.0877 233.711 27.098 234.29 27.098C234.889 27.098 235.602 27.098 236.429 27.098C237.256 27.0773 238 27.067 238.661 27.067ZM235.623 30.632V43.528C235.623 43.6727 235.623 43.9103 235.623 44.241C235.623 44.551 235.633 44.861 235.654 45.171C235.695 45.4603 235.737 45.636 235.778 45.698C235.902 45.8633 236.202 45.977 236.677 46.039C237.173 46.101 237.7 46.132 238.258 46.132C239.705 46.132 241.027 45.822 242.226 45.202C243.445 44.582 244.427 43.6417 245.171 42.381C245.915 41.0997 246.287 39.4773 246.287 37.514C246.287 35.7987 246.049 34.3417 245.574 33.143C245.119 31.9443 244.489 30.973 243.683 30.229C242.898 29.4643 241.999 28.9167 240.986 28.586C239.994 28.2347 238.95 28.059 237.855 28.059C237.731 28.059 237.504 28.0693 237.173 28.09C236.842 28.09 236.532 28.1107 236.243 28.152C235.954 28.1933 235.788 28.2657 235.747 28.369C235.685 28.5757 235.644 28.8547 235.623 29.206C235.623 29.5367 235.623 29.888 235.623 30.26C235.623 30.322 235.623 30.384 235.623 30.446C235.623 30.508 235.623 30.57 235.623 30.632ZM255.512 27.098C256.111 27.098 256.69 27.0877 257.248 27.067C257.826 27.0257 258.426 26.9947 259.046 26.974C259.128 27.0567 259.159 27.2013 259.139 27.408C259.139 27.6147 259.108 27.7593 259.046 27.842C258.922 27.842 258.694 27.8627 258.364 27.904C258.033 27.9247 257.723 27.966 257.434 28.028C257.144 28.09 256.979 28.183 256.938 28.307C256.876 28.5137 256.834 28.7823 256.814 29.113C256.814 29.4437 256.814 29.8053 256.814 30.198C256.814 30.26 256.814 30.322 256.814 30.384C256.814 30.446 256.814 30.508 256.814 30.57V43.497C256.814 43.559 256.814 43.621 256.814 43.683C256.814 43.745 256.814 43.807 256.814 43.869C256.814 44.2617 256.814 44.6233 256.814 44.954C256.834 45.264 256.876 45.5223 256.938 45.729C256.979 45.8323 257.144 45.9253 257.434 46.008C257.723 46.0907 258.033 46.1527 258.364 46.194C258.694 46.2147 258.922 46.225 259.046 46.225C259.108 46.3077 259.139 46.4523 259.139 46.659C259.159 46.8657 259.128 47.0103 259.046 47.093C258.426 47.0517 257.826 47.0207 257.248 47C256.69 46.9587 256.111 46.938 255.512 46.938C254.933 46.938 254.344 46.9587 253.745 47C253.145 47.0207 252.536 47.0517 251.916 47.093C251.833 47.0103 251.792 46.8657 251.792 46.659C251.812 46.4523 251.854 46.3077 251.916 46.225C252.04 46.225 252.267 46.2147 252.598 46.194C252.928 46.1527 253.238 46.0907 253.528 46.008C253.838 45.9253 254.003 45.8323 254.024 45.729C254.106 45.481 254.148 45.1607 254.148 44.768C254.168 44.3753 254.179 43.9517 254.179 43.497V30.57C254.179 30.1153 254.168 29.6917 254.148 29.299C254.148 28.8857 254.106 28.555 254.024 28.307C254.003 28.183 253.838 28.09 253.528 28.028C253.238 27.966 252.928 27.9247 252.598 27.904C252.267 27.8627 252.04 27.842 251.916 27.842C251.854 27.7593 251.812 27.6147 251.792 27.408C251.792 27.2013 251.833 27.0567 251.916 26.974C252.536 26.9947 253.145 27.0257 253.745 27.067C254.344 27.0877 254.933 27.098 255.512 27.098ZM263.243 42.784C263.243 42.784 263.336 42.536 263.522 42.04C263.729 41.5233 263.998 40.831 264.328 39.963C264.659 39.095 265.031 38.134 265.444 37.08C265.878 36.0053 266.312 34.91 266.746 33.794C267.18 32.6573 267.594 31.5723 267.986 30.539C268.4 29.5057 268.761 28.5963 269.071 27.811C269.154 27.6457 269.33 27.4597 269.598 27.253C269.888 27.0463 270.105 26.943 270.249 26.943C270.291 26.943 270.311 26.9533 270.311 26.974C270.332 26.974 270.363 26.9843 270.404 27.005L276.573 43.187C277.028 44.3857 277.286 45.047 277.348 45.171C277.452 45.3983 277.648 45.5947 277.937 45.76C278.247 45.9253 278.547 46.0493 278.836 46.132C279.146 46.194 279.343 46.225 279.425 46.225C279.508 46.3283 279.539 46.4937 279.518 46.721C279.498 46.9277 279.477 47.0517 279.456 47.093C278.857 47.0517 278.32 47.0207 277.844 47C277.369 46.9587 276.801 46.938 276.139 46.938C275.437 46.938 274.848 46.9587 274.372 47C273.918 47.0207 273.339 47.0517 272.636 47.093C272.554 47.0103 272.512 46.8657 272.512 46.659C272.533 46.4523 272.585 46.3077 272.667 46.225C272.853 46.225 273.143 46.194 273.535 46.132C273.928 46.0493 274.197 45.946 274.341 45.822C274.424 45.7393 274.465 45.5947 274.465 45.388C274.465 45.202 274.393 44.892 274.248 44.458C274.124 44.0033 273.959 43.497 273.752 42.939C273.546 42.381 273.339 41.8437 273.132 41.327C272.926 40.7897 272.75 40.3557 272.605 40.025C272.481 39.6737 272.419 39.498 272.419 39.498C272.419 39.498 272.399 39.4773 272.357 39.436C272.316 39.3947 272.275 39.374 272.233 39.374C271.923 39.3533 271.541 39.343 271.086 39.343C270.632 39.343 270.208 39.343 269.815 39.343C269.712 39.343 269.609 39.343 269.505 39.343C269.402 39.343 269.309 39.343 269.226 39.343C268.606 39.343 268.079 39.3533 267.645 39.374C267.211 39.374 266.653 39.3947 265.971 39.436C265.951 39.436 265.92 39.4567 265.878 39.498C265.837 39.5187 265.816 39.529 265.816 39.529C265.816 39.529 265.734 39.7357 265.568 40.149C265.424 40.5623 265.238 41.0583 265.01 41.637C264.804 42.195 264.618 42.722 264.452 43.218C264.266 43.7347 264.142 44.1687 264.08 44.52C264.039 44.8713 264.018 45.1503 264.018 45.357C264.018 45.5843 264.173 45.7703 264.483 45.915C264.814 46.039 265.145 46.1217 265.475 46.163C265.827 46.2043 266.044 46.225 266.126 46.225C266.168 46.2663 266.199 46.4007 266.219 46.628C266.24 46.8347 266.23 46.9897 266.188 47.093C265.796 47.0723 265.455 47.0517 265.165 47.031C264.897 47.0103 264.618 46.9897 264.328 46.969C264.06 46.9483 263.698 46.938 263.243 46.938C262.789 46.938 262.406 46.9483 262.096 46.969C261.786 46.9897 261.476 47.0103 261.166 47.031C260.856 47.0517 260.464 47.0723 259.988 47.093C259.947 47.0517 259.926 46.9277 259.926 46.721C259.926 46.4937 259.947 46.3283 259.988 46.225C260.174 46.225 260.484 46.1837 260.918 46.101C261.373 45.9977 261.673 45.8427 261.817 45.636C262.127 45.2433 262.386 44.8093 262.592 44.334C262.82 43.838 263.037 43.3213 263.243 42.784ZM269.164 30.601L266.405 37.979C266.405 37.979 266.405 37.9997 266.405 38.041C266.426 38.0823 266.447 38.103 266.467 38.103C266.86 38.1237 267.325 38.1443 267.862 38.165C268.42 38.165 268.865 38.165 269.195 38.165C269.671 38.165 270.094 38.1547 270.466 38.134C270.859 38.1133 271.283 38.0927 271.737 38.072C271.779 38.072 271.799 38.0513 271.799 38.01C271.82 37.948 271.83 37.917 271.83 37.917L269.164 30.601ZM304.08 32.492C304.08 33.7113 303.801 34.786 303.243 35.716C302.685 36.6253 301.899 37.3383 300.887 37.855C299.895 38.351 298.737 38.599 297.415 38.599C297.249 38.599 297.032 38.5783 296.764 38.537C296.495 38.4957 296.278 38.4337 296.113 38.351C296.071 38.3097 295.989 38.2373 295.865 38.134C295.741 38.01 295.679 37.855 295.679 37.669C295.679 37.545 295.73 37.4933 295.834 37.514C295.999 37.5553 296.175 37.607 296.361 37.669C296.547 37.7103 296.753 37.731 296.981 37.731C298.2 37.731 299.223 37.328 300.05 36.522C300.876 35.6953 301.29 34.5277 301.29 33.019C301.29 31.5103 300.876 30.3013 300.05 29.392C299.223 28.4827 297.973 28.028 296.299 28.028C296.113 28.028 295.823 28.0383 295.431 28.059C295.059 28.0797 294.842 28.1623 294.78 28.307C294.697 28.493 294.645 28.8133 294.625 29.268C294.625 29.702 294.625 30.1463 294.625 30.601V43.497C294.625 43.9517 294.625 44.3753 294.625 44.768C294.645 45.1607 294.697 45.481 294.78 45.729C294.821 45.8323 294.986 45.9253 295.276 46.008C295.565 46.0907 295.865 46.1527 296.175 46.194C296.505 46.2147 296.733 46.225 296.857 46.225C296.919 46.3077 296.95 46.4523 296.95 46.659C296.97 46.8657 296.939 47.0103 296.857 47.093C296.237 47.0517 295.637 47.0207 295.059 47C294.501 46.9587 293.922 46.938 293.323 46.938C292.744 46.938 292.155 46.9587 291.556 47C290.977 47.0207 290.378 47.0517 289.758 47.093C289.675 47.0103 289.634 46.8657 289.634 46.659C289.654 46.4523 289.696 46.3077 289.758 46.225C289.882 46.225 290.099 46.2147 290.409 46.194C290.739 46.1527 291.049 46.0907 291.339 46.008C291.649 45.9253 291.814 45.8323 291.835 45.729C291.917 45.481 291.959 45.1607 291.959 44.768C291.979 44.3753 291.99 43.9517 291.99 43.497V30.57C291.99 30.1153 291.979 29.6917 291.959 29.299C291.959 28.8857 291.917 28.555 291.835 28.307C291.814 28.183 291.649 28.09 291.339 28.028C291.049 27.966 290.739 27.9247 290.409 27.904C290.099 27.8627 289.882 27.842 289.758 27.842C289.696 27.7593 289.654 27.6147 289.634 27.408C289.634 27.2013 289.675 27.0567 289.758 26.974C290.378 26.9947 290.977 27.0257 291.556 27.067C292.155 27.0877 292.744 27.098 293.323 27.098C293.922 27.098 294.563 27.0877 295.245 27.067C295.947 27.0463 296.743 27.036 297.632 27.036C298.706 27.036 299.729 27.253 300.701 27.687C301.693 28.1003 302.499 28.71 303.119 29.516C303.759 30.322 304.08 31.314 304.08 32.492ZM316.267 26.819C317.611 26.819 318.871 27.067 320.049 27.563C321.248 28.059 322.302 28.772 323.211 29.702C324.121 30.6113 324.834 31.6963 325.35 32.957C325.888 34.197 326.156 35.5713 326.156 37.08C326.156 38.506 325.888 39.839 325.35 41.079C324.834 42.2983 324.121 43.3833 323.211 44.334C322.302 45.264 321.248 45.9977 320.049 46.535C318.871 47.0517 317.611 47.31 316.267 47.31C314.945 47.31 313.684 47.062 312.485 46.566C311.307 46.07 310.264 45.3673 309.354 44.458C308.466 43.528 307.763 42.443 307.246 41.203C306.73 39.9423 306.471 38.568 306.471 37.08C306.471 35.654 306.73 34.321 307.246 33.081C307.763 31.841 308.466 30.756 309.354 29.826C310.264 28.8753 311.307 28.1417 312.485 27.625C313.684 27.0877 314.945 26.819 316.267 26.819ZM315.833 27.842C314.697 27.842 313.725 28.1003 312.919 28.617C312.113 29.113 311.452 29.7743 310.935 30.601C310.439 31.4277 310.067 32.3473 309.819 33.36C309.592 34.3727 309.478 35.3853 309.478 36.398C309.478 37.576 309.633 38.754 309.943 39.932C310.274 41.0893 310.749 42.1537 311.369 43.125C311.989 44.0757 312.744 44.8403 313.632 45.419C314.542 45.9977 315.585 46.287 316.763 46.287C317.9 46.287 318.871 46.039 319.677 45.543C320.483 45.0263 321.145 44.3443 321.661 43.497C322.178 42.6497 322.55 41.7197 322.777 40.707C323.025 39.6737 323.149 38.6507 323.149 37.638C323.149 36.46 322.984 35.2923 322.653 34.135C322.343 32.9777 321.868 31.9237 321.227 30.973C320.607 30.0223 319.843 29.268 318.933 28.71C318.045 28.1313 317.011 27.842 315.833 27.842ZM335.533 26.85C336.174 26.85 336.701 26.8913 337.114 26.974C337.548 27.036 337.982 27.129 338.416 27.253C338.871 27.377 339.429 27.5217 340.09 27.687C340.214 28.4723 340.307 29.2887 340.369 30.136C340.452 30.9627 340.503 31.5827 340.524 31.996C340.545 32.0993 340.472 32.182 340.307 32.244C340.142 32.2853 340.007 32.306 339.904 32.306C339.759 32.306 339.646 32.2647 339.563 32.182C339.522 31.81 339.398 31.376 339.191 30.88C338.984 30.384 338.695 29.9087 338.323 29.454C337.972 28.9993 337.538 28.6273 337.021 28.338C336.525 28.028 335.957 27.873 335.316 27.873C334.489 27.873 333.838 28.0487 333.363 28.4C332.888 28.7513 332.547 29.1853 332.34 29.702C332.133 30.2187 332.03 30.725 332.03 31.221C332.03 32.027 332.237 32.6987 332.65 33.236C333.084 33.7733 333.621 34.2487 334.262 34.662C334.923 35.0753 335.585 35.499 336.246 35.933C336.742 36.243 337.29 36.584 337.889 36.956C338.488 37.328 339.067 37.7413 339.625 38.196C340.183 38.6507 340.638 39.1777 340.989 39.777C341.34 40.3557 341.516 41.017 341.516 41.761C341.516 42.8563 341.206 43.8277 340.586 44.675C339.987 45.5017 339.201 46.1527 338.23 46.628C337.279 47.0827 336.267 47.31 335.192 47.31C334.179 47.31 333.198 47.1963 332.247 46.969C331.317 46.7417 330.48 46.5557 329.736 46.411C329.612 45.8117 329.498 45.171 329.395 44.489C329.312 43.807 329.24 43.2077 329.178 42.691C329.137 42.1743 329.116 41.854 329.116 41.73C329.219 41.6267 329.333 41.544 329.457 41.482C329.602 41.3993 329.746 41.358 329.891 41.358C330.077 41.358 330.191 41.451 330.232 41.637C330.294 41.9263 330.418 42.3293 330.604 42.846C330.811 43.342 331.1 43.8587 331.472 44.396C331.865 44.9333 332.361 45.388 332.96 45.76C333.58 46.1113 334.345 46.287 335.254 46.287C336.225 46.287 337.073 45.9667 337.796 45.326C338.519 44.6647 338.881 43.745 338.881 42.567C338.881 41.7197 338.685 41.0583 338.292 40.583C337.92 40.1077 337.424 39.6943 336.804 39.343C336.205 38.9917 335.554 38.6197 334.851 38.227C334.086 37.7723 333.291 37.2763 332.464 36.739C331.658 36.181 330.976 35.53 330.418 34.786C329.86 34.042 329.581 33.1637 329.581 32.151C329.581 31.0763 329.86 30.1463 330.418 29.361C330.997 28.555 331.741 27.935 332.65 27.501C333.559 27.067 334.52 26.85 335.533 26.85ZM358.201 26.974C358.449 26.974 358.77 26.9223 359.162 26.819C359.555 26.7157 359.844 26.6227 360.03 26.54C360.196 26.4573 360.309 26.416 360.371 26.416C360.433 26.416 360.506 26.4367 360.588 26.478C360.692 27.408 360.805 28.307 360.929 29.175C361.074 30.043 361.229 30.88 361.394 31.686C361.353 31.7273 361.281 31.779 361.177 31.841C361.074 31.903 360.95 31.9237 360.805 31.903C360.578 31.903 360.433 31.8513 360.371 31.748C360.165 30.694 359.824 29.8157 359.348 29.113C358.873 28.4103 358.253 28.059 357.488 28.059H353.644V43.497C353.644 43.9517 353.644 44.3753 353.644 44.768C353.665 45.1607 353.717 45.481 353.799 45.729C353.841 45.8323 354.006 45.9253 354.295 46.008C354.585 46.0907 354.884 46.1527 355.194 46.194C355.525 46.2147 355.752 46.225 355.876 46.225C355.938 46.3077 355.969 46.4523 355.969 46.659C355.99 46.8657 355.959 47.0103 355.876 47.093C355.256 47.0517 354.657 47.0207 354.078 47C353.52 46.9587 352.942 46.938 352.342 46.938C351.764 46.938 351.175 46.9587 350.575 47C349.976 47.0207 349.366 47.0517 348.746 47.093C348.664 47.0103 348.622 46.8657 348.622 46.659C348.643 46.4523 348.684 46.3077 348.746 46.225C348.87 46.225 349.098 46.2147 349.428 46.194C349.759 46.1527 350.069 46.0907 350.358 46.008C350.668 45.9253 350.834 45.8323 350.854 45.729C350.937 45.481 350.978 45.1607 350.978 44.768C350.999 44.3753 351.009 43.9517 351.009 43.497V28.059H347.103C346.339 28.059 345.719 28.4103 345.243 29.113C344.768 29.8157 344.417 30.694 344.189 31.748C344.127 31.8513 343.983 31.903 343.755 31.903C343.611 31.9237 343.487 31.903 343.383 31.841C343.301 31.779 343.239 31.7273 343.197 31.686C343.363 30.88 343.507 30.043 343.631 29.175C343.755 28.307 343.869 27.408 343.972 26.478C344.076 26.4367 344.2 26.4367 344.344 26.478C344.489 26.4987 344.603 26.5297 344.685 26.571C344.871 26.6537 345.13 26.7467 345.46 26.85C345.812 26.9327 346.111 26.974 346.359 26.974H358.201ZM366.736 27.098C368.162 27.098 369.733 27.067 371.448 27.005C373.164 26.943 374.838 26.912 376.47 26.912C376.574 27.6767 376.708 28.3793 376.873 29.02C377.039 29.6607 377.194 30.322 377.338 31.004C377.235 31.1073 377.059 31.159 376.811 31.159C376.543 31.159 376.398 31.0867 376.377 30.942C376.047 29.7227 375.582 28.9477 374.982 28.617C374.383 28.2863 373.68 28.121 372.874 28.121H370.27C370.146 28.121 369.919 28.1313 369.588 28.152C369.258 28.152 368.948 28.1727 368.658 28.214C368.369 28.2553 368.204 28.3277 368.162 28.431C368.1 28.6377 368.059 28.9063 368.038 29.237C368.038 29.5677 368.038 29.9087 368.038 30.26C368.038 30.4047 368.038 30.5183 368.038 30.601V36.243C368.038 36.3257 368.173 36.3773 368.441 36.398C368.71 36.4187 369.01 36.429 369.34 36.429H370.921C371.645 36.429 372.203 36.4083 372.595 36.367C373.009 36.3257 373.308 36.2327 373.494 36.088C373.68 35.9433 373.825 35.7263 373.928 35.437C374.032 35.1477 374.145 34.755 374.269 34.259C374.29 34.1143 374.435 34.042 374.703 34.042C374.951 34.042 375.127 34.0937 375.23 34.197V39.901C375.148 39.9837 374.982 40.025 374.734 40.025C374.486 40.025 374.331 39.9527 374.269 39.808C374.125 39.2293 374.001 38.816 373.897 38.568C373.815 38.2993 373.732 38.1237 373.649 38.041C373.587 37.9377 373.505 37.855 373.401 37.793C373.298 37.7103 373.06 37.6587 372.688 37.638C372.316 37.5967 371.903 37.576 371.448 37.576C371.014 37.5553 370.601 37.545 370.208 37.545C369.94 37.545 369.63 37.5553 369.278 37.576C368.948 37.576 368.658 37.5967 368.41 37.638C368.162 37.6587 368.038 37.7207 368.038 37.824V43.59C368.038 43.6313 368.038 43.6933 368.038 43.776C368.038 44.0653 368.038 44.4373 368.038 44.892C368.059 45.3467 368.111 45.605 368.193 45.667C368.4 45.8117 368.648 45.9047 368.937 45.946C369.247 45.9667 369.723 45.977 370.363 45.977H371.82C372.544 45.977 373.257 45.9047 373.959 45.76C374.662 45.6153 375.22 45.4087 375.633 45.14C376.109 44.8507 376.481 44.4373 376.749 43.9C377.018 43.342 377.276 42.7427 377.524 42.102C377.566 41.978 377.71 41.916 377.958 41.916C378.33 41.916 378.578 41.978 378.702 42.102C378.413 42.9287 378.093 43.807 377.741 44.737C377.411 45.667 377.194 46.4627 377.09 47.124C375.458 47.124 373.835 47.1033 372.223 47.062C370.611 47.0207 368.793 47 366.767 47C366.065 47 365.434 47.0103 364.876 47.031C364.318 47.0723 363.74 47.093 363.14 47.093C363.058 47.0103 363.016 46.8657 363.016 46.659C363.037 46.4523 363.078 46.3077 363.14 46.225C363.264 46.225 363.492 46.2147 363.822 46.194C364.153 46.1527 364.463 46.0907 364.752 46.008C365.062 45.9253 365.228 45.8323 365.248 45.729C365.331 45.481 365.372 45.1607 365.372 44.768C365.393 44.3753 365.403 43.9517 365.403 43.497V30.57C365.403 30.1153 365.393 29.6917 365.372 29.299C365.372 28.8857 365.331 28.555 365.248 28.307C365.228 28.183 365.062 28.09 364.752 28.028C364.463 27.966 364.153 27.9247 363.822 27.904C363.492 27.8627 363.264 27.842 363.14 27.842C363.078 27.7593 363.037 27.6147 363.016 27.408C363.016 27.2013 363.058 27.0567 363.14 26.974C363.76 26.9947 364.37 27.0257 364.969 27.067C365.569 27.0877 366.158 27.098 366.736 27.098ZM388.785 27.036C389.467 27.036 390.17 27.1497 390.893 27.377C391.616 27.6043 392.278 27.935 392.877 28.369C393.497 28.803 393.993 29.3507 394.365 30.012C394.737 30.6527 394.923 31.407 394.923 32.275C394.923 32.9983 394.716 33.701 394.303 34.383C393.91 35.065 393.394 35.6643 392.753 36.181C392.133 36.6977 391.482 37.0697 390.8 37.297C391.337 38.1857 391.854 39.002 392.35 39.746C392.846 40.49 393.363 41.234 393.9 41.978C394.437 42.7013 395.037 43.5073 395.698 44.396C396.132 44.9747 396.597 45.4087 397.093 45.698C397.61 45.9873 398.281 46.163 399.108 46.225C399.191 46.3077 399.211 46.4627 399.17 46.69C399.129 46.9173 399.098 47.0517 399.077 47.093C398.064 47.093 397.217 47.062 396.535 47C395.874 46.9173 395.388 46.8243 395.078 46.721C394.871 46.6383 394.582 46.5143 394.21 46.349C393.838 46.163 393.476 45.8427 393.125 45.388C393.001 45.2227 392.774 44.9023 392.443 44.427C392.112 43.9517 391.72 43.373 391.265 42.691C390.81 42.009 390.325 41.2857 389.808 40.521C389.291 39.7357 388.795 38.971 388.32 38.227C388.155 37.979 387.845 37.855 387.39 37.855H385.809V43.497C385.809 43.559 385.809 43.621 385.809 43.683C385.809 43.745 385.809 43.807 385.809 43.869C385.809 44.2617 385.809 44.6233 385.809 44.954C385.83 45.264 385.871 45.5223 385.933 45.729C385.974 45.8323 386.14 45.9253 386.429 46.008C386.718 46.0907 387.028 46.1527 387.359 46.194C387.69 46.2147 387.917 46.225 388.041 46.225C388.103 46.3077 388.134 46.4523 388.134 46.659C388.155 46.8657 388.124 47.0103 388.041 47.093C387.421 47.0517 386.822 47.0207 386.243 47C385.685 46.9587 385.106 46.938 384.507 46.938C383.928 46.938 383.339 46.9587 382.74 47C382.141 47.0207 381.531 47.0517 380.911 47.093C380.828 47.0103 380.787 46.8657 380.787 46.659C380.808 46.4523 380.849 46.3077 380.911 46.225C381.035 46.225 381.262 46.2147 381.593 46.194C381.924 46.1527 382.234 46.0907 382.523 46.008C382.833 45.9253 382.998 45.8323 383.019 45.729C383.102 45.481 383.143 45.1607 383.143 44.768C383.164 44.3753 383.174 43.9517 383.174 43.497L383.143 30.57C383.143 30.1153 383.133 29.6917 383.112 29.299C383.112 28.8857 383.071 28.555 382.988 28.307C382.967 28.183 382.802 28.09 382.492 28.028C382.203 27.966 381.893 27.9247 381.562 27.904C381.252 27.8627 381.035 27.842 380.911 27.842C380.849 27.7593 380.808 27.6147 380.787 27.408C380.787 27.2013 380.828 27.0567 380.911 26.974C381.531 26.9947 382.13 27.0257 382.709 27.067C383.308 27.0877 383.897 27.098 384.476 27.098C385.075 27.098 385.716 27.0877 386.398 27.067C387.101 27.0463 387.896 27.036 388.785 27.036ZM392.102 32.554C392.102 31.2313 391.74 30.1463 391.017 29.299C390.314 28.4517 389.126 28.028 387.452 28.028C387.266 28.028 386.977 28.0383 386.584 28.059C386.212 28.0797 385.995 28.1623 385.933 28.307C385.85 28.493 385.799 28.8133 385.778 29.268C385.778 29.702 385.778 30.1463 385.778 30.601L385.809 36.925H387.421C388.206 36.925 388.95 36.7493 389.653 36.398C390.376 36.026 390.965 35.5197 391.42 34.879C391.875 34.2177 392.102 33.4427 392.102 32.554ZM406.252 26.85C406.892 26.85 407.419 26.8913 407.833 26.974C408.267 27.036 408.701 27.129 409.135 27.253C409.589 27.377 410.147 27.5217 410.809 27.687C410.933 28.4723 411.026 29.2887 411.088 30.136C411.17 30.9627 411.222 31.5827 411.243 31.996C411.263 32.0993 411.191 32.182 411.026 32.244C410.86 32.2853 410.726 32.306 410.623 32.306C410.478 32.306 410.364 32.2647 410.282 32.182C410.24 31.81 410.116 31.376 409.91 30.88C409.703 30.384 409.414 29.9087 409.042 29.454C408.69 28.9993 408.256 28.6273 407.74 28.338C407.244 28.028 406.675 27.873 406.035 27.873C405.208 27.873 404.557 28.0487 404.082 28.4C403.606 28.7513 403.265 29.1853 403.059 29.702C402.852 30.2187 402.749 30.725 402.749 31.221C402.749 32.027 402.955 32.6987 403.369 33.236C403.803 33.7733 404.34 34.2487 404.981 34.662C405.642 35.0753 406.303 35.499 406.965 35.933C407.461 36.243 408.008 36.584 408.608 36.956C409.207 37.328 409.786 37.7413 410.344 38.196C410.902 38.6507 411.356 39.1777 411.708 39.777C412.059 40.3557 412.235 41.017 412.235 41.761C412.235 42.8563 411.925 43.8277 411.305 44.675C410.705 45.5017 409.92 46.1527 408.949 46.628C407.998 47.0827 406.985 47.31 405.911 47.31C404.898 47.31 403.916 47.1963 402.966 46.969C402.036 46.7417 401.199 46.5557 400.455 46.411C400.331 45.8117 400.217 45.171 400.114 44.489C400.031 43.807 399.959 43.2077 399.897 42.691C399.855 42.1743 399.835 41.854 399.835 41.73C399.938 41.6267 400.052 41.544 400.176 41.482C400.32 41.3993 400.465 41.358 400.61 41.358C400.796 41.358 400.909 41.451 400.951 41.637C401.013 41.9263 401.137 42.3293 401.323 42.846C401.529 43.342 401.819 43.8587 402.191 44.396C402.583 44.9333 403.079 45.388 403.679 45.76C404.299 46.1113 405.063 46.287 405.973 46.287C406.944 46.287 407.791 45.9667 408.515 45.326C409.238 44.6647 409.6 43.745 409.6 42.567C409.6 41.7197 409.403 41.0583 409.011 40.583C408.639 40.1077 408.143 39.6943 407.523 39.343C406.923 38.9917 406.272 38.6197 405.57 38.227C404.805 37.7723 404.009 37.2763 403.183 36.739C402.377 36.181 401.695 35.53 401.137 34.786C400.579 34.042 400.3 33.1637 400.3 32.151C400.3 31.0763 400.579 30.1463 401.137 29.361C401.715 28.555 402.459 27.935 403.369 27.501C404.278 27.067 405.239 26.85 406.252 26.85Z" fill="black"/>
<path d="M415.5 140H0L55 218H485L415.5 140Z" fill="#BCA1A3"/>
<path d="M104.638 167.172C105.363 167.172 106.066 167.161 106.746 167.138C107.426 167.093 108.095 167.059 108.752 167.036C108.797 167.127 108.809 167.308 108.786 167.58C108.786 167.829 108.752 167.965 108.684 167.988C108.593 167.988 108.378 168.022 108.038 168.09C107.721 168.135 107.415 168.237 107.12 168.396C106.825 168.532 106.678 168.759 106.678 169.076C106.678 169.439 106.882 170.187 107.29 171.32C107.471 171.819 107.709 172.487 108.004 173.326C108.321 174.142 108.661 175.049 109.024 176.046C109.387 177.043 109.749 178.041 110.112 179.038C110.497 180.035 110.837 180.953 111.132 181.792C111.449 182.631 111.699 183.322 111.88 183.866C112.084 184.387 112.197 184.671 112.22 184.716C112.265 184.625 112.413 184.285 112.662 183.696C112.911 183.084 113.217 182.313 113.58 181.384C113.965 180.455 114.385 179.435 114.838 178.324C115.291 177.191 115.745 176.046 116.198 174.89C116.674 173.734 117.116 172.646 117.524 171.626C117.683 171.241 117.819 170.833 117.932 170.402C118.045 169.971 118.102 169.609 118.102 169.314C118.102 168.951 117.943 168.679 117.626 168.498C117.331 168.317 117.003 168.192 116.64 168.124C116.3 168.056 116.062 168.022 115.926 168.022C115.835 167.977 115.79 167.829 115.79 167.58C115.79 167.308 115.835 167.127 115.926 167.036C116.538 167.059 117.116 167.093 117.66 167.138C118.204 167.161 118.782 167.172 119.394 167.172C119.915 167.172 120.323 167.172 120.618 167.172C120.935 167.149 121.241 167.127 121.536 167.104C121.831 167.081 122.193 167.059 122.624 167.036C122.669 167.127 122.681 167.308 122.658 167.58C122.635 167.852 122.601 167.988 122.556 167.988C122.42 167.988 122.103 168.045 121.604 168.158C121.128 168.271 120.743 168.498 120.448 168.838C120.244 169.065 119.972 169.529 119.632 170.232C119.315 170.912 119.031 171.569 118.782 172.204C118.17 173.723 117.603 175.117 117.082 176.386C116.583 177.655 116.085 178.879 115.586 180.058C115.11 181.237 114.611 182.461 114.09 183.73C113.569 184.999 112.979 186.405 112.322 187.946C112.141 188.377 111.937 188.671 111.71 188.83C111.506 188.989 111.291 189.068 111.064 189.068C110.996 189.068 110.939 189 110.894 188.864C110.849 188.705 110.803 188.592 110.758 188.524C110.01 186.552 109.307 184.716 108.65 183.016C108.015 181.293 107.358 179.548 106.678 177.78C106.021 176.012 105.273 174.063 104.434 171.932C104.185 171.275 103.935 170.685 103.686 170.164C103.459 169.643 103.199 169.167 102.904 168.736C102.791 168.555 102.587 168.407 102.292 168.294C101.997 168.181 101.703 168.101 101.408 168.056C101.136 168.011 100.932 167.988 100.796 167.988C100.773 167.988 100.762 167.841 100.762 167.546C100.762 167.229 100.773 167.059 100.796 167.036C101.567 167.059 102.201 167.093 102.7 167.138C103.221 167.161 103.867 167.172 104.638 167.172ZM127.624 167.172C128.281 167.172 128.916 167.161 129.528 167.138C130.162 167.093 130.82 167.059 131.5 167.036C131.59 167.127 131.624 167.285 131.602 167.512C131.602 167.739 131.568 167.897 131.5 167.988C131.364 167.988 131.114 168.011 130.752 168.056C130.389 168.079 130.049 168.124 129.732 168.192C129.414 168.26 129.233 168.362 129.188 168.498C129.12 168.725 129.074 169.019 129.052 169.382C129.052 169.745 129.052 170.141 129.052 170.572C129.052 170.64 129.052 170.708 129.052 170.776C129.052 170.844 129.052 170.912 129.052 170.98V185.158C129.052 185.226 129.052 185.294 129.052 185.362C129.052 185.43 129.052 185.498 129.052 185.566C129.052 185.997 129.052 186.393 129.052 186.756C129.074 187.096 129.12 187.379 129.188 187.606C129.233 187.719 129.414 187.821 129.732 187.912C130.049 188.003 130.389 188.071 130.752 188.116C131.114 188.139 131.364 188.15 131.5 188.15C131.568 188.241 131.602 188.399 131.602 188.626C131.624 188.853 131.59 189.011 131.5 189.102C130.82 189.057 130.162 189.023 129.528 189C128.916 188.955 128.281 188.932 127.624 188.932C126.989 188.932 126.343 188.955 125.686 189C125.028 189.023 124.36 189.057 123.68 189.102C123.589 189.011 123.544 188.853 123.544 188.626C123.566 188.399 123.612 188.241 123.68 188.15C123.816 188.15 124.065 188.139 124.428 188.116C124.79 188.071 125.13 188.003 125.448 187.912C125.788 187.821 125.969 187.719 125.992 187.606C126.082 187.334 126.128 186.983 126.128 186.552C126.15 186.121 126.162 185.657 126.162 185.158V170.98C126.162 170.481 126.15 170.017 126.128 169.586C126.128 169.133 126.082 168.77 125.992 168.498C125.969 168.362 125.788 168.26 125.448 168.192C125.13 168.124 124.79 168.079 124.428 168.056C124.065 168.011 123.816 167.988 123.68 167.988C123.612 167.897 123.566 167.739 123.544 167.512C123.544 167.285 123.589 167.127 123.68 167.036C124.36 167.059 125.028 167.093 125.686 167.138C126.343 167.161 126.989 167.172 127.624 167.172ZM141.611 166.9C142.314 166.9 142.892 166.945 143.345 167.036C143.821 167.104 144.297 167.206 144.773 167.342C145.272 167.478 145.884 167.637 146.609 167.818C146.745 168.679 146.847 169.575 146.915 170.504C147.006 171.411 147.063 172.091 147.085 172.544C147.108 172.657 147.029 172.748 146.847 172.816C146.666 172.861 146.519 172.884 146.405 172.884C146.247 172.884 146.122 172.839 146.031 172.748C145.986 172.34 145.85 171.864 145.623 171.32C145.397 170.776 145.079 170.255 144.671 169.756C144.286 169.257 143.81 168.849 143.243 168.532C142.699 168.192 142.076 168.022 141.373 168.022C140.467 168.022 139.753 168.215 139.231 168.6C138.71 168.985 138.336 169.461 138.109 170.028C137.883 170.595 137.769 171.15 137.769 171.694C137.769 172.578 137.996 173.315 138.449 173.904C138.925 174.493 139.515 175.015 140.217 175.468C140.943 175.921 141.668 176.386 142.393 176.862C142.937 177.202 143.538 177.576 144.195 177.984C144.853 178.392 145.487 178.845 146.099 179.344C146.711 179.843 147.21 180.421 147.595 181.078C147.981 181.713 148.173 182.438 148.173 183.254C148.173 184.455 147.833 185.521 147.153 186.45C146.496 187.357 145.635 188.071 144.569 188.592C143.527 189.091 142.416 189.34 141.237 189.34C140.127 189.34 139.05 189.215 138.007 188.966C136.987 188.717 136.069 188.513 135.253 188.354C135.117 187.697 134.993 186.994 134.879 186.246C134.789 185.498 134.709 184.841 134.641 184.274C134.596 183.707 134.573 183.356 134.573 183.22C134.687 183.107 134.811 183.016 134.947 182.948C135.106 182.857 135.265 182.812 135.423 182.812C135.627 182.812 135.752 182.914 135.797 183.118C135.865 183.435 136.001 183.877 136.205 184.444C136.432 184.988 136.749 185.555 137.157 186.144C137.588 186.733 138.132 187.232 138.789 187.64C139.469 188.025 140.308 188.218 141.305 188.218C142.371 188.218 143.3 187.867 144.093 187.164C144.887 186.439 145.283 185.43 145.283 184.138C145.283 183.209 145.068 182.483 144.637 181.962C144.229 181.441 143.685 180.987 143.005 180.602C142.348 180.217 141.634 179.809 140.863 179.378C140.025 178.879 139.152 178.335 138.245 177.746C137.361 177.134 136.613 176.42 136.001 175.604C135.389 174.788 135.083 173.825 135.083 172.714C135.083 171.535 135.389 170.515 136.001 169.654C136.636 168.77 137.452 168.09 138.449 167.614C139.447 167.138 140.501 166.9 141.611 166.9ZM154.505 167.172C155.163 167.172 155.797 167.161 156.409 167.138C157.044 167.093 157.701 167.059 158.381 167.036C158.472 167.127 158.506 167.285 158.483 167.512C158.483 167.739 158.449 167.897 158.381 167.988C158.245 167.988 157.996 168.011 157.633 168.056C157.293 168.079 156.965 168.124 156.647 168.192C156.33 168.26 156.149 168.362 156.103 168.498C156.013 168.77 155.956 169.133 155.933 169.586C155.933 170.017 155.933 170.481 155.933 170.98V179.174C155.933 180.557 156.069 181.758 156.341 182.778C156.636 183.798 157.044 184.637 157.565 185.294C158.608 186.563 160.127 187.198 162.121 187.198C163.277 187.198 164.331 186.983 165.283 186.552C166.235 186.121 167.006 185.385 167.595 184.342C168.207 183.277 168.525 181.792 168.547 179.888V170.912C168.547 170.323 168.536 169.858 168.513 169.518C168.491 169.178 168.389 168.872 168.207 168.6C168.139 168.487 167.947 168.385 167.629 168.294C167.312 168.181 166.972 168.101 166.609 168.056C166.269 167.988 166.009 167.954 165.827 167.954C165.737 167.841 165.691 167.682 165.691 167.478C165.714 167.251 165.737 167.093 165.759 167.002C166.417 167.025 167.006 167.059 167.527 167.104C168.071 167.127 168.706 167.138 169.431 167.138C169.953 167.138 170.372 167.138 170.689 167.138C171.029 167.115 171.369 167.093 171.709 167.07C172.072 167.047 172.503 167.025 173.001 167.002C173.047 167.093 173.081 167.229 173.103 167.41C173.126 167.591 173.092 167.773 173.001 167.954C172.865 167.954 172.605 167.977 172.219 168.022C171.834 168.067 171.46 168.147 171.097 168.26C170.735 168.351 170.508 168.464 170.417 168.6C170.259 168.849 170.157 169.133 170.111 169.45C170.089 169.767 170.077 170.243 170.077 170.878V179.82C170.077 182.019 169.715 183.809 168.989 185.192C168.264 186.552 167.244 187.549 165.929 188.184C164.637 188.819 163.13 189.136 161.407 189.136C160.229 189.136 159.129 188.943 158.109 188.558C157.089 188.173 156.217 187.629 155.491 186.926C154.721 186.201 154.12 185.305 153.689 184.24C153.259 183.175 153.043 181.985 153.043 180.67V170.98C153.043 170.481 153.032 170.017 153.009 169.586C153.009 169.133 152.964 168.77 152.873 168.498C152.851 168.362 152.669 168.26 152.329 168.192C152.012 168.124 151.672 168.079 151.309 168.056C150.969 168.011 150.731 167.988 150.595 167.988C150.527 167.897 150.482 167.739 150.459 167.512C150.459 167.285 150.505 167.127 150.595 167.036C151.275 167.059 151.933 167.093 152.567 167.138C153.225 167.161 153.871 167.172 154.505 167.172ZM175.549 184.376C175.549 184.376 175.651 184.104 175.855 183.56C176.081 182.993 176.376 182.234 176.739 181.282C177.101 180.33 177.509 179.276 177.963 178.12C178.439 176.941 178.915 175.74 179.391 174.516C179.867 173.269 180.32 172.079 180.751 170.946C181.204 169.813 181.601 168.815 181.941 167.954C182.031 167.773 182.224 167.569 182.519 167.342C182.836 167.115 183.074 167.002 183.233 167.002C183.278 167.002 183.301 167.013 183.301 167.036C183.323 167.036 183.357 167.047 183.403 167.07L190.169 184.818C190.667 186.133 190.951 186.858 191.019 186.994C191.132 187.243 191.347 187.459 191.665 187.64C192.005 187.821 192.333 187.957 192.651 188.048C192.991 188.116 193.206 188.15 193.297 188.15C193.387 188.263 193.421 188.445 193.399 188.694C193.376 188.921 193.353 189.057 193.331 189.102C192.673 189.057 192.084 189.023 191.563 189C191.041 188.955 190.418 188.932 189.693 188.932C188.922 188.932 188.276 188.955 187.755 189C187.256 189.023 186.621 189.057 185.851 189.102C185.76 189.011 185.715 188.853 185.715 188.626C185.737 188.399 185.794 188.241 185.885 188.15C186.089 188.15 186.406 188.116 186.837 188.048C187.267 187.957 187.562 187.844 187.721 187.708C187.811 187.617 187.857 187.459 187.857 187.232C187.857 187.028 187.777 186.688 187.619 186.212C187.483 185.713 187.301 185.158 187.075 184.546C186.848 183.934 186.621 183.345 186.395 182.778C186.168 182.189 185.975 181.713 185.817 181.35C185.681 180.965 185.613 180.772 185.613 180.772C185.613 180.772 185.59 180.749 185.545 180.704C185.499 180.659 185.454 180.636 185.409 180.636C185.069 180.613 184.649 180.602 184.151 180.602C183.652 180.602 183.187 180.602 182.757 180.602C182.643 180.602 182.53 180.602 182.417 180.602C182.303 180.602 182.201 180.602 182.111 180.602C181.431 180.602 180.853 180.613 180.377 180.636C179.901 180.636 179.289 180.659 178.541 180.704C178.518 180.704 178.484 180.727 178.439 180.772C178.393 180.795 178.371 180.806 178.371 180.806C178.371 180.806 178.28 181.033 178.099 181.486C177.94 181.939 177.736 182.483 177.487 183.118C177.26 183.73 177.056 184.308 176.875 184.852C176.671 185.419 176.535 185.895 176.467 186.28C176.421 186.665 176.399 186.971 176.399 187.198C176.399 187.447 176.569 187.651 176.909 187.81C177.271 187.946 177.634 188.037 177.997 188.082C178.382 188.127 178.62 188.15 178.711 188.15C178.756 188.195 178.79 188.343 178.813 188.592C178.835 188.819 178.824 188.989 178.779 189.102C178.348 189.079 177.974 189.057 177.657 189.034C177.362 189.011 177.056 188.989 176.739 188.966C176.444 188.943 176.047 188.932 175.549 188.932C175.05 188.932 174.631 188.943 174.291 188.966C173.951 188.989 173.611 189.011 173.271 189.034C172.931 189.057 172.5 189.079 171.979 189.102C171.933 189.057 171.911 188.921 171.911 188.694C171.911 188.445 171.933 188.263 171.979 188.15C172.183 188.15 172.523 188.105 172.999 188.014C173.497 187.901 173.826 187.731 173.985 187.504C174.325 187.073 174.608 186.597 174.835 186.076C175.084 185.532 175.322 184.965 175.549 184.376ZM182.043 171.014L179.017 179.106C179.017 179.106 179.017 179.129 179.017 179.174C179.039 179.219 179.062 179.242 179.085 179.242C179.515 179.265 180.025 179.287 180.615 179.31C181.227 179.31 181.714 179.31 182.077 179.31C182.598 179.31 183.063 179.299 183.471 179.276C183.901 179.253 184.366 179.231 184.865 179.208C184.91 179.208 184.933 179.185 184.933 179.14C184.955 179.072 184.967 179.038 184.967 179.038L182.043 171.014ZM200.073 185.158C200.073 185.203 200.073 185.271 200.073 185.362C200.073 185.566 200.073 185.838 200.073 186.178C200.073 186.495 200.084 186.79 200.107 187.062C200.13 187.334 200.175 187.493 200.243 187.538C200.47 187.697 200.742 187.799 201.059 187.844C201.399 187.867 201.92 187.878 202.623 187.878H204.493C205.128 187.878 205.819 187.81 206.567 187.674C207.338 187.515 207.95 187.277 208.403 186.96C208.811 186.665 209.185 186.257 209.525 185.736C209.888 185.215 210.205 184.512 210.477 183.628C210.522 183.492 210.681 183.424 210.953 183.424C211.361 183.424 211.633 183.492 211.769 183.628C211.452 184.535 211.1 185.498 210.715 186.518C210.352 187.538 210.114 188.411 210.001 189.136C208.21 189.136 206.431 189.113 204.663 189.068C202.895 189.023 200.9 189 198.679 189C197.908 189 197.217 189.011 196.605 189.034C195.993 189.079 195.358 189.102 194.701 189.102C194.61 189.011 194.565 188.853 194.565 188.626C194.588 188.399 194.633 188.241 194.701 188.15C194.837 188.15 195.086 188.139 195.449 188.116C195.812 188.071 196.152 188.003 196.469 187.912C196.809 187.821 196.99 187.719 197.013 187.606C197.104 187.334 197.149 186.983 197.149 186.552C197.172 186.121 197.183 185.657 197.183 185.158V170.98C197.183 170.481 197.172 170.017 197.149 169.586C197.149 169.133 197.104 168.77 197.013 168.498C196.99 168.362 196.809 168.26 196.469 168.192C196.152 168.124 195.812 168.079 195.449 168.056C195.086 168.011 194.837 167.988 194.701 167.988C194.633 167.897 194.588 167.739 194.565 167.512C194.565 167.285 194.61 167.127 194.701 167.036C195.381 167.059 196.05 167.093 196.707 167.138C197.364 167.161 198.01 167.172 198.645 167.172C199.302 167.172 199.937 167.161 200.549 167.138C201.184 167.093 201.841 167.059 202.521 167.036C202.612 167.127 202.646 167.285 202.623 167.512C202.623 167.739 202.589 167.897 202.521 167.988C202.385 167.988 202.136 168.011 201.773 168.056C201.41 168.079 201.07 168.124 200.753 168.192C200.436 168.26 200.254 168.362 200.209 168.498C200.141 168.725 200.096 169.019 200.073 169.382C200.073 169.745 200.073 170.141 200.073 170.572C200.073 170.64 200.073 170.708 200.073 170.776C200.073 170.844 200.073 170.912 200.073 170.98V185.158ZM237.194 167.172C237.851 167.172 238.486 167.161 239.098 167.138C239.733 167.093 240.39 167.059 241.07 167.036C241.161 167.127 241.195 167.285 241.172 167.512C241.172 167.739 241.138 167.897 241.07 167.988C240.934 167.988 240.685 168.011 240.322 168.056C239.959 168.079 239.619 168.124 239.302 168.192C238.985 168.26 238.803 168.362 238.758 168.498C238.69 168.725 238.645 169.019 238.622 169.382C238.622 169.745 238.622 170.141 238.622 170.572C238.622 170.64 238.622 170.708 238.622 170.776C238.622 170.844 238.622 170.912 238.622 170.98V185.158C238.622 185.226 238.622 185.294 238.622 185.362C238.622 185.43 238.622 185.498 238.622 185.566C238.622 185.997 238.622 186.393 238.622 186.756C238.645 187.096 238.69 187.379 238.758 187.606C238.803 187.719 238.985 187.821 239.302 187.912C239.619 188.003 239.959 188.071 240.322 188.116C240.685 188.139 240.934 188.15 241.07 188.15C241.138 188.241 241.172 188.399 241.172 188.626C241.195 188.853 241.161 189.011 241.07 189.102C240.39 189.057 239.733 189.023 239.098 189C238.486 188.955 237.851 188.932 237.194 188.932C236.559 188.932 235.913 188.955 235.256 189C234.599 189.023 233.93 189.057 233.25 189.102C233.159 189.011 233.114 188.853 233.114 188.626C233.137 188.399 233.182 188.241 233.25 188.15C233.386 188.15 233.635 188.139 233.998 188.116C234.361 188.071 234.701 188.003 235.018 187.912C235.358 187.821 235.539 187.719 235.562 187.606C235.653 187.334 235.698 186.983 235.698 186.552C235.721 186.121 235.732 185.657 235.732 185.158V170.98C235.732 170.481 235.721 170.017 235.698 169.586C235.698 169.133 235.653 168.77 235.562 168.498C235.539 168.362 235.358 168.26 235.018 168.192C234.701 168.124 234.361 168.079 233.998 168.056C233.635 168.011 233.386 167.988 233.25 167.988C233.182 167.897 233.137 167.739 233.114 167.512C233.114 167.285 233.159 167.127 233.25 167.036C233.93 167.059 234.599 167.093 235.256 167.138C235.913 167.161 236.559 167.172 237.194 167.172ZM252.746 167.138C255.171 167.138 257.256 167.614 259.002 168.566C260.747 169.495 262.084 170.776 263.014 172.408C263.943 174.017 264.408 175.853 264.408 177.916C264.408 179.321 264.215 180.693 263.83 182.03C263.444 183.367 262.787 184.569 261.858 185.634C260.951 186.699 259.716 187.549 258.152 188.184C256.588 188.796 254.638 189.102 252.304 189.102H244.008C243.917 189.011 243.872 188.853 243.872 188.626C243.894 188.399 243.94 188.241 244.008 188.15C244.144 188.15 244.393 188.139 244.756 188.116C245.118 188.071 245.458 188.003 245.776 187.912C246.116 187.821 246.297 187.719 246.32 187.606C246.41 187.334 246.456 186.983 246.456 186.552C246.478 186.121 246.49 185.657 246.49 185.158V170.98C246.49 170.481 246.478 170.017 246.456 169.586C246.456 169.133 246.41 168.77 246.32 168.498C246.297 168.362 246.116 168.26 245.776 168.192C245.458 168.124 245.118 168.079 244.756 168.056C244.393 168.011 244.144 167.988 244.008 167.988C243.94 167.897 243.894 167.739 243.872 167.512C243.872 167.285 243.917 167.127 244.008 167.036C244.688 167.059 245.356 167.093 246.014 167.138C246.671 167.161 247.317 167.172 247.952 167.172C248.609 167.172 249.391 167.172 250.298 167.172C251.204 167.149 252.02 167.138 252.746 167.138ZM249.414 171.048V185.192C249.414 185.351 249.414 185.611 249.414 185.974C249.414 186.314 249.425 186.654 249.448 186.994C249.493 187.311 249.538 187.504 249.584 187.572C249.72 187.753 250.048 187.878 250.57 187.946C251.114 188.014 251.692 188.048 252.304 188.048C253.89 188.048 255.341 187.708 256.656 187.028C257.993 186.348 259.07 185.317 259.886 183.934C260.702 182.529 261.11 180.749 261.11 178.596C261.11 176.715 260.849 175.117 260.328 173.802C259.829 172.487 259.138 171.422 258.254 170.606C257.392 169.767 256.406 169.167 255.296 168.804C254.208 168.419 253.063 168.226 251.862 168.226C251.726 168.226 251.476 168.237 251.114 168.26C250.751 168.26 250.411 168.283 250.094 168.328C249.776 168.373 249.595 168.453 249.55 168.566C249.482 168.793 249.436 169.099 249.414 169.484C249.414 169.847 249.414 170.232 249.414 170.64C249.414 170.708 249.414 170.776 249.414 170.844C249.414 170.912 249.414 170.98 249.414 171.048ZM271.227 167.172C272.791 167.172 274.514 167.138 276.395 167.07C278.276 167.002 280.112 166.968 281.903 166.968C282.016 167.807 282.164 168.577 282.345 169.28C282.526 169.983 282.696 170.708 282.855 171.456C282.742 171.569 282.549 171.626 282.277 171.626C281.982 171.626 281.824 171.547 281.801 171.388C281.438 170.051 280.928 169.201 280.271 168.838C279.614 168.475 278.843 168.294 277.959 168.294H275.103C274.967 168.294 274.718 168.305 274.355 168.328C273.992 168.328 273.652 168.351 273.335 168.396C273.018 168.441 272.836 168.521 272.791 168.634C272.723 168.861 272.678 169.155 272.655 169.518C272.655 169.881 272.655 170.255 272.655 170.64C272.655 170.799 272.655 170.923 272.655 171.014V177.202C272.655 177.293 272.802 177.349 273.097 177.372C273.392 177.395 273.72 177.406 274.083 177.406H275.817C276.61 177.406 277.222 177.383 277.653 177.338C278.106 177.293 278.435 177.191 278.639 177.032C278.843 176.873 279.002 176.635 279.115 176.318C279.228 176.001 279.353 175.57 279.489 175.026C279.512 174.867 279.67 174.788 279.965 174.788C280.237 174.788 280.43 174.845 280.543 174.958V181.214C280.452 181.305 280.271 181.35 279.999 181.35C279.727 181.35 279.557 181.271 279.489 181.112C279.33 180.477 279.194 180.024 279.081 179.752C278.99 179.457 278.9 179.265 278.809 179.174C278.741 179.061 278.65 178.97 278.537 178.902C278.424 178.811 278.163 178.755 277.755 178.732C277.347 178.687 276.894 178.664 276.395 178.664C275.919 178.641 275.466 178.63 275.035 178.63C274.74 178.63 274.4 178.641 274.015 178.664C273.652 178.664 273.335 178.687 273.063 178.732C272.791 178.755 272.655 178.823 272.655 178.936V185.26C272.655 185.305 272.655 185.373 272.655 185.464C272.655 185.781 272.655 186.189 272.655 186.688C272.678 187.187 272.734 187.47 272.825 187.538C273.052 187.697 273.324 187.799 273.641 187.844C273.981 187.867 274.502 187.878 275.205 187.878H276.803C277.596 187.878 278.378 187.799 279.149 187.64C279.92 187.481 280.532 187.255 280.985 186.96C281.506 186.643 281.914 186.189 282.209 185.6C282.504 184.988 282.787 184.331 283.059 183.628C283.104 183.492 283.263 183.424 283.535 183.424C283.943 183.424 284.215 183.492 284.351 183.628C284.034 184.535 283.682 185.498 283.297 186.518C282.934 187.538 282.696 188.411 282.583 189.136C280.792 189.136 279.013 189.113 277.245 189.068C275.477 189.023 273.482 189 271.261 189C270.49 189 269.799 189.011 269.187 189.034C268.575 189.079 267.94 189.102 267.283 189.102C267.192 189.011 267.147 188.853 267.147 188.626C267.17 188.399 267.215 188.241 267.283 188.15C267.419 188.15 267.668 188.139 268.031 188.116C268.394 188.071 268.734 188.003 269.051 187.912C269.391 187.821 269.572 187.719 269.595 187.606C269.686 187.334 269.731 186.983 269.731 186.552C269.754 186.121 269.765 185.657 269.765 185.158V170.98C269.765 170.481 269.754 170.017 269.731 169.586C269.731 169.133 269.686 168.77 269.595 168.498C269.572 168.362 269.391 168.26 269.051 168.192C268.734 168.124 268.394 168.079 268.031 168.056C267.668 168.011 267.419 167.988 267.283 167.988C267.215 167.897 267.17 167.739 267.147 167.512C267.147 167.285 267.192 167.127 267.283 167.036C267.963 167.059 268.632 167.093 269.289 167.138C269.946 167.161 270.592 167.172 271.227 167.172ZM290.037 167.07C290.536 167.07 291.023 167.07 291.499 167.07C291.975 167.07 292.327 167.059 292.553 167.036C292.893 167.557 293.437 168.294 294.185 169.246C294.933 170.198 295.806 171.286 296.803 172.51C297.801 173.711 298.832 174.958 299.897 176.25C300.963 177.542 301.994 178.823 302.991 180.092C303.989 181.339 304.85 182.472 305.575 183.492V170.912C305.575 170.323 305.564 169.858 305.541 169.518C305.519 169.178 305.417 168.872 305.235 168.6C305.167 168.487 304.963 168.385 304.623 168.294C304.283 168.181 303.921 168.101 303.535 168.056C303.173 167.988 302.901 167.954 302.719 167.954C302.629 167.841 302.583 167.682 302.583 167.478C302.606 167.251 302.629 167.093 302.651 167.002C303.309 167.025 303.921 167.059 304.487 167.104C305.077 167.127 305.734 167.138 306.459 167.138C306.981 167.138 307.4 167.138 307.717 167.138C308.057 167.115 308.397 167.093 308.737 167.07C309.1 167.047 309.531 167.025 310.029 167.002C310.075 167.093 310.109 167.229 310.131 167.41C310.154 167.591 310.12 167.773 310.029 167.954C309.893 167.954 309.621 167.977 309.213 168.022C308.828 168.067 308.454 168.147 308.091 168.26C307.729 168.351 307.502 168.464 307.411 168.6C307.253 168.849 307.162 169.133 307.139 169.45C307.117 169.767 307.105 170.243 307.105 170.878V184.376C307.105 185.011 307.105 185.566 307.105 186.042C307.105 186.518 307.105 186.983 307.105 187.436C307.128 187.867 307.151 188.377 307.173 188.966C307.151 189.057 307.083 189.113 306.969 189.136C306.856 189.159 306.777 189.17 306.731 189.17C306.641 189.17 306.482 189.113 306.255 189C306.051 188.887 305.825 188.683 305.575 188.388L291.091 170.096V185.192C291.091 185.781 291.103 186.246 291.125 186.586C291.171 186.903 291.273 187.198 291.431 187.47C291.499 187.583 291.692 187.697 292.009 187.81C292.349 187.901 292.701 187.98 293.063 188.048C293.449 188.116 293.732 188.15 293.913 188.15C294.004 188.263 294.049 188.422 294.049 188.626C294.049 188.83 294.027 188.989 293.981 189.102C293.324 189.057 292.712 189.023 292.145 189C291.579 188.955 290.933 188.932 290.207 188.932C289.709 188.932 289.278 188.943 288.915 188.966C288.575 188.989 288.235 189.011 287.895 189.034C287.578 189.057 287.159 189.079 286.637 189.102C286.592 189.011 286.558 188.875 286.535 188.694C286.513 188.513 286.547 188.331 286.637 188.15C286.773 188.15 287.034 188.127 287.419 188.082C287.805 188.014 288.179 187.935 288.541 187.844C288.927 187.731 289.153 187.606 289.221 187.47C289.38 187.221 289.471 186.949 289.493 186.654C289.539 186.337 289.561 185.861 289.561 185.226V170.81C289.561 170.175 289.539 169.699 289.493 169.382C289.471 169.065 289.38 168.781 289.221 168.532C289.153 168.396 288.927 168.283 288.541 168.192C288.179 168.079 287.805 167.999 287.419 167.954C287.034 167.909 286.773 167.886 286.637 167.886C286.547 167.705 286.513 167.523 286.535 167.342C286.558 167.161 286.592 167.025 286.637 166.934C287.408 166.957 288.031 166.991 288.507 167.036C288.983 167.059 289.493 167.07 290.037 167.07ZM327.874 167.036C328.146 167.036 328.497 166.979 328.928 166.866C329.358 166.753 329.676 166.651 329.88 166.56C330.061 166.469 330.186 166.424 330.254 166.424C330.322 166.424 330.401 166.447 330.492 166.492C330.605 167.512 330.73 168.498 330.866 169.45C331.024 170.402 331.194 171.32 331.376 172.204C331.33 172.249 331.251 172.306 331.138 172.374C331.024 172.442 330.888 172.465 330.73 172.442C330.48 172.442 330.322 172.385 330.254 172.272C330.027 171.116 329.653 170.153 329.132 169.382C328.61 168.611 327.93 168.226 327.092 168.226H322.876V185.158C322.876 185.657 322.876 186.121 322.876 186.552C322.898 186.983 322.955 187.334 323.046 187.606C323.091 187.719 323.272 187.821 323.59 187.912C323.907 188.003 324.236 188.071 324.576 188.116C324.938 188.139 325.188 188.15 325.324 188.15C325.392 188.241 325.426 188.399 325.426 188.626C325.448 188.853 325.414 189.011 325.324 189.102C324.644 189.057 323.986 189.023 323.352 189C322.74 188.955 322.105 188.932 321.448 188.932C320.813 188.932 320.167 188.955 319.51 189C318.852 189.023 318.184 189.057 317.504 189.102C317.413 189.011 317.368 188.853 317.368 188.626C317.39 188.399 317.436 188.241 317.504 188.15C317.64 188.15 317.889 188.139 318.252 188.116C318.614 188.071 318.954 188.003 319.272 187.912C319.612 187.821 319.793 187.719 319.816 187.606C319.906 187.334 319.952 186.983 319.952 186.552C319.974 186.121 319.986 185.657 319.986 185.158V168.226H315.702C314.863 168.226 314.183 168.611 313.662 169.382C313.14 170.153 312.755 171.116 312.506 172.272C312.438 172.385 312.279 172.442 312.03 172.442C311.871 172.465 311.735 172.442 311.622 172.374C311.531 172.306 311.463 172.249 311.418 172.204C311.599 171.32 311.758 170.402 311.894 169.45C312.03 168.498 312.154 167.512 312.268 166.492C312.381 166.447 312.517 166.447 312.676 166.492C312.834 166.515 312.959 166.549 313.05 166.594C313.254 166.685 313.537 166.787 313.9 166.9C314.285 166.991 314.614 167.036 314.886 167.036H327.874ZM337.235 167.172C337.892 167.172 338.527 167.161 339.139 167.138C339.774 167.093 340.431 167.059 341.111 167.036C341.202 167.127 341.236 167.285 341.213 167.512C341.213 167.739 341.179 167.897 341.111 167.988C340.975 167.988 340.726 168.011 340.363 168.056C340 168.079 339.66 168.124 339.343 168.192C339.026 168.26 338.844 168.362 338.799 168.498C338.731 168.725 338.686 169.019 338.663 169.382C338.663 169.745 338.663 170.141 338.663 170.572C338.663 170.64 338.663 170.708 338.663 170.776C338.663 170.844 338.663 170.912 338.663 170.98V185.158C338.663 185.226 338.663 185.294 338.663 185.362C338.663 185.43 338.663 185.498 338.663 185.566C338.663 185.997 338.663 186.393 338.663 186.756C338.686 187.096 338.731 187.379 338.799 187.606C338.844 187.719 339.026 187.821 339.343 187.912C339.66 188.003 340 188.071 340.363 188.116C340.726 188.139 340.975 188.15 341.111 188.15C341.179 188.241 341.213 188.399 341.213 188.626C341.236 188.853 341.202 189.011 341.111 189.102C340.431 189.057 339.774 189.023 339.139 189C338.527 188.955 337.892 188.932 337.235 188.932C336.6 188.932 335.954 188.955 335.297 189C334.64 189.023 333.971 189.057 333.291 189.102C333.2 189.011 333.155 188.853 333.155 188.626C333.178 188.399 333.223 188.241 333.291 188.15C333.427 188.15 333.676 188.139 334.039 188.116C334.402 188.071 334.742 188.003 335.059 187.912C335.399 187.821 335.58 187.719 335.603 187.606C335.694 187.334 335.739 186.983 335.739 186.552C335.762 186.121 335.773 185.657 335.773 185.158V170.98C335.773 170.481 335.762 170.017 335.739 169.586C335.739 169.133 335.694 168.77 335.603 168.498C335.58 168.362 335.399 168.26 335.059 168.192C334.742 168.124 334.402 168.079 334.039 168.056C333.676 168.011 333.427 167.988 333.291 167.988C333.223 167.897 333.178 167.739 333.155 167.512C333.155 167.285 333.2 167.127 333.291 167.036C333.971 167.059 334.64 167.093 335.297 167.138C335.954 167.161 336.6 167.172 337.235 167.172ZM359.417 167.036C359.689 167.036 360.04 166.979 360.471 166.866C360.901 166.753 361.219 166.651 361.423 166.56C361.604 166.469 361.729 166.424 361.797 166.424C361.865 166.424 361.944 166.447 362.035 166.492C362.148 167.512 362.273 168.498 362.409 169.45C362.567 170.402 362.737 171.32 362.919 172.204C362.873 172.249 362.794 172.306 362.681 172.374C362.567 172.442 362.431 172.465 362.273 172.442C362.023 172.442 361.865 172.385 361.797 172.272C361.57 171.116 361.196 170.153 360.675 169.382C360.153 168.611 359.473 168.226 358.635 168.226H354.419V185.158C354.419 185.657 354.419 186.121 354.419 186.552C354.441 186.983 354.498 187.334 354.589 187.606C354.634 187.719 354.815 187.821 355.133 187.912C355.45 188.003 355.779 188.071 356.119 188.116C356.481 188.139 356.731 188.15 356.867 188.15C356.935 188.241 356.969 188.399 356.969 188.626C356.991 188.853 356.957 189.011 356.867 189.102C356.187 189.057 355.529 189.023 354.895 189C354.283 188.955 353.648 188.932 352.991 188.932C352.356 188.932 351.71 188.955 351.053 189C350.395 189.023 349.727 189.057 349.047 189.102C348.956 189.011 348.911 188.853 348.911 188.626C348.933 188.399 348.979 188.241 349.047 188.15C349.183 188.15 349.432 188.139 349.795 188.116C350.157 188.071 350.497 188.003 350.815 187.912C351.155 187.821 351.336 187.719 351.359 187.606C351.449 187.334 351.495 186.983 351.495 186.552C351.517 186.121 351.529 185.657 351.529 185.158V168.226H347.245C346.406 168.226 345.726 168.611 345.205 169.382C344.683 170.153 344.298 171.116 344.049 172.272C343.981 172.385 343.822 172.442 343.573 172.442C343.414 172.465 343.278 172.442 343.165 172.374C343.074 172.306 343.006 172.249 342.961 172.204C343.142 171.32 343.301 170.402 343.437 169.45C343.573 168.498 343.697 167.512 343.811 166.492C343.924 166.447 344.06 166.447 344.219 166.492C344.377 166.515 344.502 166.549 344.593 166.594C344.797 166.685 345.08 166.787 345.443 166.9C345.828 166.991 346.157 167.036 346.429 167.036H359.417ZM372.008 185.158V180.126C372.008 179.831 371.929 179.525 371.77 179.208C371.294 178.324 370.863 177.553 370.478 176.896C370.115 176.239 369.764 175.615 369.424 175.026C369.084 174.437 368.721 173.813 368.336 173.156C367.973 172.476 367.543 171.694 367.044 170.81C366.681 170.198 366.341 169.733 366.024 169.416C365.707 169.076 365.321 168.77 364.868 168.498C364.573 168.317 364.233 168.192 363.848 168.124C363.485 168.033 363.202 167.988 362.998 167.988C362.907 167.988 362.862 167.852 362.862 167.58C362.862 167.308 362.907 167.127 362.998 167.036C363.814 167.059 364.505 167.093 365.072 167.138C365.639 167.161 366.33 167.172 367.146 167.172C367.962 167.172 368.71 167.161 369.39 167.138C370.07 167.093 370.739 167.059 371.396 167.036C371.441 167.127 371.464 167.308 371.464 167.58C371.464 167.852 371.419 167.988 371.328 167.988C371.169 167.988 370.931 168.022 370.614 168.09C370.297 168.135 370.002 168.237 369.73 168.396C369.481 168.532 369.356 168.747 369.356 169.042C369.356 169.291 369.481 169.62 369.73 170.028L374.354 178.018C374.762 177.293 375.193 176.499 375.646 175.638C376.099 174.754 376.53 173.904 376.938 173.088C377.346 172.249 377.697 171.501 377.992 170.844C378.309 170.187 378.536 169.711 378.672 169.416C378.695 169.371 378.717 169.303 378.74 169.212C378.763 169.099 378.774 168.997 378.774 168.906C378.774 168.725 378.615 168.532 378.298 168.328C378.003 168.124 377.391 168.022 376.462 168.022C376.417 168.022 376.383 167.875 376.36 167.58C376.36 167.263 376.371 167.081 376.394 167.036C377.006 167.059 377.55 167.093 378.026 167.138C378.525 167.183 379.08 167.206 379.692 167.206C380.281 167.206 380.757 167.195 381.12 167.172C381.505 167.149 381.868 167.127 382.208 167.104C382.548 167.081 382.933 167.059 383.364 167.036C383.409 167.127 383.421 167.319 383.398 167.614C383.375 167.886 383.341 168.022 383.296 168.022C383.205 168.022 382.967 168.045 382.582 168.09C382.197 168.113 381.789 168.215 381.358 168.396C380.927 168.577 380.587 168.895 380.338 169.348C380.021 169.892 379.635 170.583 379.182 171.422C378.729 172.238 378.253 173.111 377.754 174.04C377.255 174.947 376.768 175.842 376.292 176.726C375.839 177.587 375.431 178.347 375.068 179.004C374.977 179.163 374.932 179.31 374.932 179.446C374.932 179.582 374.932 179.718 374.932 179.854C374.932 179.922 374.932 179.979 374.932 180.024C374.932 180.681 374.932 181.418 374.932 182.234C374.932 183.027 374.921 183.719 374.898 184.308C374.898 184.875 374.898 185.158 374.898 185.158C374.898 185.226 374.898 185.294 374.898 185.362C374.898 185.43 374.898 185.498 374.898 185.566C374.898 185.997 374.898 186.393 374.898 186.756C374.921 187.096 374.966 187.379 375.034 187.606C375.079 187.719 375.261 187.821 375.578 187.912C375.895 188.003 376.235 188.071 376.598 188.116C376.961 188.139 377.21 188.15 377.346 188.15C377.414 188.241 377.448 188.399 377.448 188.626C377.471 188.853 377.437 189.011 377.346 189.102C376.666 189.057 376.009 189.023 375.374 189C374.762 188.955 374.127 188.932 373.47 188.932C372.835 188.932 372.189 188.955 371.532 189C370.875 189.023 370.206 189.057 369.526 189.102C369.435 189.011 369.39 188.853 369.39 188.626C369.413 188.399 369.458 188.241 369.526 188.15C369.662 188.15 369.911 188.139 370.274 188.116C370.637 188.071 370.977 188.003 371.294 187.912C371.634 187.821 371.815 187.719 371.838 187.606C371.929 187.334 371.974 186.983 371.974 186.552C371.997 186.121 372.008 185.657 372.008 185.158Z" fill="black"/>
<path d="M415.5 280H0L55 358H485L415.5 280Z" fill="#448292"/>
<path d="M181.791 303.542C182.608 303.542 183.326 303.526 183.947 303.493C184.568 303.428 185.139 303.379 185.662 303.346C185.858 303.967 186.217 304.93 186.74 306.237C187.295 307.544 187.932 309.095 188.651 310.892C189.402 312.656 190.203 314.534 191.052 316.527C191.901 318.52 192.734 320.512 193.551 322.505C194.368 324.465 195.119 326.294 195.805 327.993C195.838 328.058 195.903 328.091 196.001 328.091C196.099 328.091 196.164 328.026 196.197 327.895C197.144 325.478 197.994 323.305 198.745 321.378C199.496 319.418 200.248 317.474 200.999 315.547C201.783 313.587 202.632 311.431 203.547 309.079C203.841 308.328 204.151 307.511 204.478 306.629C204.805 305.747 205.082 304.979 205.311 304.326C205.54 303.673 205.654 303.346 205.654 303.346C207.189 303.444 208.447 303.493 209.427 303.493C210.276 303.493 211.224 303.477 212.269 303.444C213.347 303.411 214.18 303.379 214.768 303.346C214.801 303.411 214.833 303.656 214.866 304.081C214.899 304.506 214.915 304.718 214.915 304.718C214.686 304.718 214.311 304.751 213.788 304.816C213.298 304.881 212.824 304.979 212.367 305.11C211.91 305.241 211.632 305.388 211.534 305.551C211.436 305.78 211.371 306.074 211.338 306.433C211.305 306.792 211.289 307.119 211.289 307.413C211.322 308.23 211.354 309.471 211.387 311.137C211.42 312.803 211.452 314.681 211.485 316.772C211.55 318.83 211.599 320.872 211.632 322.897C211.697 324.922 211.746 326.719 211.779 328.287C211.812 329.202 211.861 330.067 211.926 330.884C211.991 331.701 212.138 332.387 212.367 332.942C212.465 333.171 212.759 333.35 213.249 333.481C213.739 333.579 214.229 333.661 214.719 333.726C215.242 333.759 215.568 333.775 215.699 333.775C215.83 334.004 215.879 334.281 215.846 334.608C215.846 334.902 215.83 335.082 215.797 335.147C214.85 335.082 213.919 335.033 213.004 335C212.122 334.935 211.158 334.902 210.113 334.902C209.002 334.902 208.039 334.935 207.222 335C206.405 335.033 205.442 335.082 204.331 335.147C204.298 335.082 204.266 334.886 204.233 334.559C204.2 334.232 204.233 333.971 204.331 333.775C204.527 333.775 204.837 333.759 205.262 333.726C205.687 333.661 206.111 333.595 206.536 333.53C206.961 333.432 207.271 333.334 207.467 333.236C207.63 333.138 207.745 332.86 207.81 332.403C207.875 331.946 207.908 331.554 207.908 331.227C207.908 330.868 207.892 330.41 207.859 329.855C207.826 329.267 207.81 328.793 207.81 328.434C207.745 326.115 207.679 323.893 207.614 321.77C207.549 319.614 207.483 317.425 207.418 315.204C207.353 312.95 207.271 310.533 207.173 307.952C207.173 307.854 207.14 307.674 207.075 307.413C207.01 307.152 206.895 307.021 206.732 307.021C206.667 307.021 206.585 307.135 206.487 307.364C205.507 309.814 204.592 312.084 203.743 314.175C202.926 316.266 202.126 318.291 201.342 320.251C200.558 322.178 199.758 324.155 198.941 326.18C198.157 328.173 197.308 330.329 196.393 332.648C196.328 332.779 196.181 333.04 195.952 333.432C195.723 333.824 195.478 334.2 195.217 334.559C194.988 334.886 194.776 335.065 194.58 335.098C194.515 335.131 194.4 335.114 194.237 335.049C194.204 335.016 194.172 335 194.139 335L182.477 307.07C182.444 309.161 182.395 311.317 182.33 313.538C182.265 315.759 182.199 317.915 182.134 320.006C182.101 322.097 182.052 323.991 181.987 325.69C181.954 327.356 181.922 328.712 181.889 329.757C181.856 330.77 181.84 331.325 181.84 331.423C181.84 331.652 181.856 331.913 181.889 332.207C181.922 332.468 181.971 332.697 182.036 332.893C182.134 333.122 182.461 333.301 183.016 333.432C183.604 333.563 184.192 333.661 184.78 333.726C185.368 333.759 185.727 333.775 185.858 333.775C185.989 333.906 186.038 334.151 186.005 334.51C185.972 334.869 185.94 335.082 185.907 335.147C184.96 335.082 184.143 335.033 183.457 335C182.771 334.935 181.905 334.902 180.86 334.902C179.749 334.902 178.818 334.935 178.067 335C177.316 335.033 176.385 335.082 175.274 335.147C175.241 335.082 175.209 334.886 175.176 334.559C175.143 334.232 175.176 333.971 175.274 333.775C175.47 333.775 175.846 333.742 176.401 333.677C176.989 333.612 177.561 333.514 178.116 333.383C178.671 333.252 179.014 333.089 179.145 332.893C179.374 332.566 179.521 332.223 179.586 331.864C179.651 331.472 179.7 331.015 179.733 330.492C179.831 327.617 179.913 324.857 179.978 322.211C180.076 319.565 180.141 317.197 180.174 315.106C180.239 312.983 180.288 311.268 180.321 309.961C180.354 308.622 180.37 307.838 180.37 307.609C180.37 307.25 180.354 306.907 180.321 306.58C180.321 306.253 180.272 305.959 180.174 305.698C180.109 305.502 179.831 305.339 179.341 305.208C178.884 305.045 178.394 304.93 177.871 304.865C177.381 304.767 177.038 304.718 176.842 304.718C176.809 304.718 176.793 304.506 176.793 304.081C176.793 303.624 176.809 303.379 176.842 303.346C177.593 303.379 178.198 303.411 178.655 303.444C179.112 303.477 179.57 303.509 180.027 303.542C180.484 303.542 181.072 303.542 181.791 303.542ZM234.711 303.101C236.834 303.101 238.827 303.493 240.689 304.277C242.584 305.061 244.25 306.188 245.687 307.658C247.124 309.095 248.251 310.81 249.068 312.803C249.917 314.763 250.342 316.935 250.342 319.32C250.342 321.574 249.917 323.681 249.068 325.641C248.251 327.568 247.124 329.283 245.687 330.786C244.25 332.256 242.584 333.416 240.689 334.265C238.827 335.082 236.834 335.49 234.711 335.49C232.62 335.49 230.628 335.098 228.733 334.314C226.871 333.53 225.221 332.419 223.784 330.982C222.379 329.512 221.269 327.797 220.452 325.837C219.635 323.844 219.227 321.672 219.227 319.32C219.227 317.066 219.635 314.959 220.452 312.999C221.269 311.039 222.379 309.324 223.784 307.854C225.221 306.351 226.871 305.192 228.733 304.375C230.628 303.526 232.62 303.101 234.711 303.101ZM234.025 304.718C232.228 304.718 230.693 305.126 229.419 305.943C228.145 306.727 227.1 307.772 226.283 309.079C225.499 310.386 224.911 311.839 224.519 313.44C224.16 315.041 223.98 316.641 223.98 318.242C223.98 320.104 224.225 321.966 224.715 323.828C225.238 325.657 225.989 327.34 226.969 328.875C227.949 330.378 229.141 331.586 230.546 332.501C231.983 333.416 233.633 333.873 235.495 333.873C237.292 333.873 238.827 333.481 240.101 332.697C241.375 331.88 242.42 330.802 243.237 329.463C244.054 328.124 244.642 326.654 245.001 325.053C245.393 323.42 245.589 321.803 245.589 320.202C245.589 318.34 245.328 316.494 244.805 314.665C244.315 312.836 243.564 311.17 242.551 309.667C241.571 308.164 240.362 306.972 238.925 306.09C237.52 305.175 235.887 304.718 234.025 304.718ZM266.839 303.444C267.917 303.444 269.028 303.624 270.171 303.983C271.315 304.342 272.36 304.865 273.307 305.551C274.287 306.237 275.071 307.103 275.659 308.148C276.247 309.161 276.541 310.353 276.541 311.725C276.541 312.868 276.215 313.979 275.561 315.057C274.941 316.135 274.124 317.082 273.111 317.899C272.131 318.716 271.102 319.304 270.024 319.663C270.874 321.068 271.69 322.358 272.474 323.534C273.258 324.71 274.075 325.886 274.924 327.062C275.774 328.205 276.721 329.479 277.766 330.884C278.452 331.799 279.187 332.485 279.971 332.942C280.788 333.399 281.85 333.677 283.156 333.775C283.287 333.906 283.32 334.151 283.254 334.51C283.189 334.869 283.14 335.082 283.107 335.147C281.507 335.147 280.167 335.098 279.089 335C278.044 334.869 277.276 334.722 276.786 334.559C276.46 334.428 276.002 334.232 275.414 333.971C274.826 333.677 274.255 333.171 273.699 332.452C273.503 332.191 273.144 331.684 272.621 330.933C272.099 330.182 271.478 329.267 270.759 328.189C270.041 327.111 269.273 325.968 268.456 324.759C267.64 323.518 266.856 322.309 266.104 321.133C265.843 320.741 265.353 320.545 264.634 320.545H262.135V329.463C262.135 329.561 262.135 329.659 262.135 329.757C262.135 329.855 262.135 329.953 262.135 330.051C262.135 330.672 262.135 331.243 262.135 331.766C262.168 332.256 262.233 332.664 262.331 332.991C262.397 333.154 262.658 333.301 263.115 333.432C263.573 333.563 264.063 333.661 264.585 333.726C265.108 333.759 265.467 333.775 265.663 333.775C265.761 333.906 265.81 334.134 265.81 334.461C265.843 334.788 265.794 335.016 265.663 335.147C264.683 335.082 263.736 335.033 262.821 335C261.939 334.935 261.025 334.902 260.077 334.902C259.163 334.902 258.232 334.935 257.284 335C256.337 335.033 255.373 335.082 254.393 335.147C254.263 335.016 254.197 334.788 254.197 334.461C254.23 334.134 254.295 333.906 254.393 333.775C254.589 333.775 254.949 333.759 255.471 333.726C255.994 333.661 256.484 333.563 256.941 333.432C257.431 333.301 257.693 333.154 257.725 332.991C257.856 332.599 257.921 332.093 257.921 331.472C257.954 330.851 257.97 330.182 257.97 329.463L257.921 309.03C257.921 308.311 257.905 307.642 257.872 307.021C257.872 306.368 257.807 305.845 257.676 305.453C257.644 305.257 257.382 305.11 256.892 305.012C256.435 304.914 255.945 304.849 255.422 304.816C254.932 304.751 254.589 304.718 254.393 304.718C254.295 304.587 254.23 304.359 254.197 304.032C254.197 303.705 254.263 303.477 254.393 303.346C255.373 303.379 256.321 303.428 257.235 303.493C258.183 303.526 259.114 303.542 260.028 303.542C260.976 303.542 261.988 303.526 263.066 303.493C264.177 303.46 265.435 303.444 266.839 303.444ZM272.082 312.166C272.082 310.075 271.511 308.36 270.367 307.021C269.257 305.682 267.378 305.012 264.732 305.012C264.438 305.012 263.981 305.028 263.36 305.061C262.772 305.094 262.429 305.224 262.331 305.453C262.201 305.747 262.119 306.253 262.086 306.972C262.086 307.658 262.086 308.36 262.086 309.079L262.135 319.075H264.683C265.925 319.075 267.101 318.797 268.211 318.242C269.355 317.654 270.286 316.854 271.004 315.841C271.723 314.796 272.082 313.571 272.082 312.166ZM289.793 303.542C292.047 303.542 294.53 303.493 297.241 303.395C299.952 303.297 302.598 303.248 305.179 303.248C305.342 304.457 305.555 305.567 305.816 306.58C306.077 307.593 306.322 308.638 306.551 309.716C306.388 309.879 306.11 309.961 305.718 309.961C305.293 309.961 305.065 309.847 305.032 309.618C304.509 307.691 303.774 306.466 302.827 305.943C301.88 305.42 300.769 305.159 299.495 305.159H295.379C295.183 305.159 294.824 305.175 294.301 305.208C293.778 305.208 293.288 305.241 292.831 305.306C292.374 305.371 292.112 305.486 292.047 305.649C291.949 305.976 291.884 306.4 291.851 306.923C291.851 307.446 291.851 307.985 291.851 308.54C291.851 308.769 291.851 308.948 291.851 309.079V317.997C291.851 318.128 292.063 318.209 292.488 318.242C292.913 318.275 293.386 318.291 293.909 318.291H296.408C297.551 318.291 298.433 318.258 299.054 318.193C299.707 318.128 300.181 317.981 300.475 317.752C300.769 317.523 300.998 317.18 301.161 316.723C301.324 316.266 301.504 315.645 301.7 314.861C301.733 314.632 301.961 314.518 302.386 314.518C302.778 314.518 303.056 314.6 303.219 314.763V323.779C303.088 323.91 302.827 323.975 302.435 323.975C302.043 323.975 301.798 323.861 301.7 323.632C301.471 322.717 301.275 322.064 301.112 321.672C300.981 321.247 300.851 320.97 300.72 320.839C300.622 320.676 300.491 320.545 300.328 320.447C300.165 320.316 299.789 320.235 299.201 320.202C298.613 320.137 297.96 320.104 297.241 320.104C296.555 320.071 295.902 320.055 295.281 320.055C294.856 320.055 294.366 320.071 293.811 320.104C293.288 320.104 292.831 320.137 292.439 320.202C292.047 320.235 291.851 320.333 291.851 320.496V329.61C291.851 329.675 291.851 329.773 291.851 329.904C291.851 330.361 291.851 330.949 291.851 331.668C291.884 332.387 291.965 332.795 292.096 332.893C292.423 333.122 292.815 333.269 293.272 333.334C293.762 333.367 294.513 333.383 295.526 333.383H297.829C298.972 333.383 300.099 333.269 301.21 333.04C302.321 332.811 303.203 332.485 303.856 332.06C304.607 331.603 305.195 330.949 305.62 330.1C306.045 329.218 306.453 328.271 306.845 327.258C306.91 327.062 307.139 326.964 307.531 326.964C308.119 326.964 308.511 327.062 308.707 327.258C308.25 328.565 307.743 329.953 307.188 331.423C306.665 332.893 306.322 334.151 306.159 335.196C303.578 335.196 301.014 335.163 298.466 335.098C295.918 335.033 293.043 335 289.842 335C288.731 335 287.735 335.016 286.853 335.049C285.971 335.114 285.056 335.147 284.109 335.147C283.978 335.016 283.913 334.788 283.913 334.461C283.946 334.134 284.011 333.906 284.109 333.775C284.305 333.775 284.664 333.759 285.187 333.726C285.71 333.661 286.2 333.563 286.657 333.432C287.147 333.301 287.408 333.154 287.441 332.991C287.572 332.599 287.637 332.093 287.637 331.472C287.67 330.851 287.686 330.182 287.686 329.463V309.03C287.686 308.311 287.67 307.642 287.637 307.021C287.637 306.368 287.572 305.845 287.441 305.453C287.408 305.257 287.147 305.11 286.657 305.012C286.2 304.914 285.71 304.849 285.187 304.816C284.664 304.751 284.305 304.718 284.109 304.718C284.011 304.587 283.946 304.359 283.913 304.032C283.913 303.705 283.978 303.477 284.109 303.346C285.089 303.379 286.053 303.428 287 303.493C287.947 303.526 288.878 303.542 289.793 303.542Z" fill="black"/>
</svg>
